<svg xmlns="http://www.w3.org/2000/svg" xmlns:xlink="http://www.w3.org/1999/xlink" viewBox="0 0 1500 1500"><defs><style>.cls-1{fill:none;}.cls-2{clip-path:url(#clip-path);}.cls-3{fill:#29526e;}.cls-4{fill:#64a6ab;}.cls-5{fill:#c65264;}.cls-6{fill:#b46675;}.cls-7{fill:#284e6a;}.cls-8{fill:#dadada;}.cls-9{fill:#fc8b48;}.cls-10{fill:#fee1c9;}</style><clipPath id="clip-path"><rect class="cls-1" width="1500" height="1500"/></clipPath></defs><g id="Layer_2" data-name="Layer 2"><g class="cls-2"><circle class="cls-3" cx="255.27" cy="697.91" r="7.91"/><circle class="cls-4" cx="416.45" cy="582.82" r="7.91"/><circle class="cls-4" cx="319.36" cy="954" r="7.91"/><circle class="cls-4" cx="611.45" cy="1343.18" r="7.91"/><circle class="cls-4" cx="805.64" cy="1468.09" r="7.91"/><circle class="cls-4" cx="115.09" cy="680.45" r="7.91" transform="translate(-251.64 95.84) rotate(-22.5)"/><circle class="cls-4" cx="771.27" cy="347.73" r="7.91"/><circle class="cls-5" cx="236.18" cy="503.18" r="3.82"/><circle class="cls-6" cx="137.45" cy="495.27" r="7.91"/><circle class="cls-7" cx="472.91" cy="395.45" r="12.27" transform="translate(6.81 798.91) rotate(-80.78)"/><circle class="cls-7" cx="66" cy="543" r="12.27"/><circle class="cls-7" cx="625.91" cy="37.64" r="12.27" transform="translate(33.24 242.39) rotate(-22.5)"/><circle class="cls-7" cx="854.18" cy="231.82" r="12.27"/><circle class="cls-7" cx="1086.82" cy="228.27" r="12.27" transform="translate(687.4 1264.49) rotate(-80.78)"/><circle class="cls-7" cx="1401.82" cy="347.73" r="12.27" transform="translate(-26.36 562.92) rotate(-22.5)"/><circle class="cls-7" cx="577.64" cy="571.09" r="12.27"/><path class="cls-7" d="M193.65,928.61a12.27,12.27,0,1,1-2.49-17.17A12.27,12.27,0,0,1,193.65,928.61Z"/><circle class="cls-7" cx="452.73" cy="1460.45" r="12.27" transform="translate(-900.1 747.88) rotate(-45)"/><circle class="cls-7" cx="130.91" cy="131.45" r="12.27" transform="translate(-19.82 239.62) rotate(-80.78)"/><circle class="cls-7" cx="658.64" cy="1146.82" r="12.27"/><circle class="cls-7" cx="87" cy="1231.91" r="12.27"/><circle class="cls-7" cx="436.64" cy="941.73" r="12.27" transform="translate(-580.22 1150.32) rotate(-76.72)"/><circle class="cls-7" cx="1323.82" cy="969.82" r="12.27"/><circle class="cls-7" cx="1061.18" cy="1323" r="12.27"/><circle class="cls-7" cx="1282.36" cy="735.27" r="12.27" transform="translate(272.13 1814.4) rotate(-76.72)"/><circle class="cls-7" cx="799.09" cy="1335.27" r="12.27" transform="translate(-646.94 1910.16) rotate(-80.78)"/><circle class="cls-7" cx="897.82" cy="853.09" r="12.27"/><circle class="cls-7" cx="1123.36" cy="587.18" r="12.27" transform="translate(-8.94 1156.93) rotate(-54.31)"/><circle class="cls-8" cx="255.27" cy="424.09" r="11.18"/><circle class="cls-9" cx="191.45" cy="322.36" r="7.91"/><circle class="cls-9" cx="391.64" cy="240.55" r="7.91" transform="translate(91.46 588.59) rotate(-80.78)"/><circle class="cls-9" cx="1282.36" cy="236.18" r="7.91"/><circle class="cls-9" cx="594" cy="344.18" r="7.91"/><circle class="cls-9" cx="834" cy="567" r="7.91"/><circle class="cls-9" cx="529.91" cy="723.55" r="7.91" transform="translate(-269.18 1130.71) rotate(-80.78)"/><circle class="cls-9" cx="266.45" cy="1069.91" r="7.91"/><circle class="cls-9" cx="724.64" cy="1327.36" r="7.91"/><circle class="cls-9" cx="1315.09" cy="1335.27" r="7.91"/><circle class="cls-9" cx="937.09" cy="1432.36" r="7.91"/><circle class="cls-9" cx="367.09" cy="805.09" r="7.91"/><circle class="cls-9" cx="183.82" cy="567" r="7.91"/><circle class="cls-9" cx="1272.27" cy="1126.64" r="7.91"/><circle class="cls-9" cx="359.18" cy="1408.36" r="7.91"/><circle class="cls-9" cx="518.18" cy="1091.73" r="7.91"/><path class="cls-9" d="M1213.05,1450.92a7.91,7.91,0,1,1-7-8.69A7.91,7.91,0,0,1,1213.05,1450.92Z"/><circle class="cls-9" cx="913.64" cy="1000.09" r="7.91"/><circle class="cls-9" cx="1083.82" cy="805.09" r="7.91"/><circle class="cls-9" cx="99.27" cy="1164.55" r="7.91" transform="translate(-1066.14 1076) rotate(-80.78)"/><circle class="cls-9" cx="1447.09" cy="482.18" r="7.91"/><circle class="cls-9" cx="1143.55" cy="360" r="7.91"/><circle class="cls-9" cx="873.55" cy="49.91" r="7.91"/><circle class="cls-9" cx="1328.18" cy="71.18" r="7.91"/><circle class="cls-9" cx="383.73" cy="89.45" r="7.91" transform="translate(-5.02 153.66) rotate(-22.5)"/><path class="cls-10" d="M375.82,514.36a4.37,4.37,0,1,1-4.37-4.36A4.37,4.37,0,0,1,375.82,514.36Z"/><path class="cls-5" d="M1161.8,200.34a3.82,3.82,0,1,1-5.18,1.54A3.82,3.82,0,0,1,1161.8,200.34Z"/><path class="cls-6" d="M1007.62,307.56a7.91,7.91,0,1,1-10.73,3.18A7.91,7.91,0,0,1,1007.62,307.56Z"/><circle class="cls-8" cx="1216.3" cy="321.3" r="11.18" transform="translate(4.41 658.87) rotate(-30.36)"/><path class="cls-9" d="M1432.77,830.62a7.91,7.91,0,1,1-10.72,3.19A7.91,7.91,0,0,1,1432.77,830.62Z"/><path class="cls-9" d="M1471.32,975.3a7.91,7.91,0,1,1-10.73,3.18A7.91,7.91,0,0,1,1471.32,975.3Z"/><path class="cls-9" d="M845.84,1127.81a7.91,7.91,0,1,1-10.72,3.18A7.91,7.91,0,0,1,845.84,1127.81Z"/><path class="cls-10" d="M1236.35,86.27a4.36,4.36,0,1,1-5.92,1.75A4.36,4.36,0,0,1,1236.35,86.27Z"/><path class="cls-4" d="M521.05,67a7.91,7.91,0,1,1,6.44,9.14A7.9,7.9,0,0,1,521.05,67Z"/><path class="cls-5" d="M689.07,176.94a3.82,3.82,0,1,1,3.11,4.42A3.83,3.83,0,0,1,689.07,176.94Z"/><circle class="cls-8" cx="660.5" cy="252.25" r="11.18" transform="translate(284.78 851.2) rotate(-78.8)"/><path class="cls-4" d="M1467.91,265.17a7.91,7.91,0,1,1-10.15-4.7A7.92,7.92,0,0,1,1467.91,265.17Z"/><path class="cls-4" d="M1508.1,30.55a7.9,7.9,0,1,1-10.15-4.7A7.9,7.9,0,0,1,1508.1,30.55Z"/><path class="cls-5" d="M1324.46,135.91a3.82,3.82,0,1,1,4.44,3.07A3.83,3.83,0,0,1,1324.46,135.91Z"/><circle class="cls-8" cx="1329.23" cy="292.95" r="11.18" transform="translate(-26.26 169.22) rotate(-7.21)"/><path class="cls-5" d="M1430.07,97.3a3.82,3.82,0,1,1,3.11,4.42A3.83,3.83,0,0,1,1430.07,97.3Z"/><path class="cls-5" d="M1363.1,16.8a3.82,3.82,0,1,1,3.11,4.42A3.82,3.82,0,0,1,1363.1,16.8Z"/><circle class="cls-8" cx="1401.5" cy="172.62" r="11.18" transform="matrix(0.82, -0.58, 0.58, 0.82, 156.22, 838.41)"/><path class="cls-9" d="M747.55,122.32a7.91,7.91,0,1,1,6.44,9.14A7.91,7.91,0,0,1,747.55,122.32Z"/><path class="cls-10" d="M557.17,142.7a4.36,4.36,0,1,1,3.55,5A4.37,4.37,0,0,1,557.17,142.7Z"/><circle class="cls-5" cx="486.27" cy="497.18" r="3.82"/><circle class="cls-5" cx="130.91" cy="292.91" r="3.82"/><path class="cls-10" d="M625.91,508.36a4.37,4.37,0,1,1-4.36-4.36A4.37,4.37,0,0,1,625.91,508.36Z"/><circle class="cls-5" cx="1184.18" cy="427.91" r="3.82"/><path class="cls-10" d="M1308,424.09a4.37,4.37,0,1,1-4.36-4.36A4.36,4.36,0,0,1,1308,424.09Z"/><path class="cls-5" d="M782.21,700.61a3.82,3.82,0,1,1,5.4,0A3.82,3.82,0,0,1,782.21,700.61Z"/><path class="cls-5" d="M574.12,734.15a3.82,3.82,0,1,1,5.4,0A3.82,3.82,0,0,1,574.12,734.15Z"/><circle class="cls-9" cx="33.27" cy="482.18" r="7.91"/><path class="cls-5" d="M73.39,419.15a3.82,3.82,0,1,1,5.4,0A3.82,3.82,0,0,1,73.39,419.15Z"/><circle class="cls-9" cx="822.55" cy="390.82" r="7.91"/><path class="cls-5" d="M862.66,327.79a3.82,3.82,0,1,1,5.4,0A3.82,3.82,0,0,1,862.66,327.79Z"/><path class="cls-5" d="M470.21,639.25a3.82,3.82,0,1,1,5.4,0A3.82,3.82,0,0,1,470.21,639.25Z"/><circle class="cls-10" cx="460.64" cy="719.18" r="4.36"/><circle class="cls-9" cx="82.35" cy="763.07" r="7.91" transform="translate(-203.41 50.75) rotate(-15.7)"/><path class="cls-5" d="M134.49,816.58a3.82,3.82,0,1,1-1.24,5.25A3.82,3.82,0,0,1,134.49,816.58Z"/><circle class="cls-10" cx="226.59" cy="760.51" r="4.36" transform="translate(-565.62 806.63) rotate(-76.74)"/><circle class="cls-10" cx="633.82" cy="614.73" r="4.36"/><circle class="cls-9" cx="619.36" cy="845.26" r="7.91" transform="matrix(1, -0.05, 0.05, 1, -43.67, 33.8)"/><path class="cls-5" d="M672.45,1024.47a3.81,3.81,0,1,1,5.39-.28A3.81,3.81,0,0,1,672.45,1024.47Z"/><path class="cls-10" d="M772.58,1106.76a4.36,4.36,0,1,1,6.17-.32A4.36,4.36,0,0,1,772.58,1106.76Z"/><path class="cls-5" d="M639.38,917.24a3.82,3.82,0,1,1-3.61,4A3.81,3.81,0,0,1,639.38,917.24Z"/><circle class="cls-5" cx="100.36" cy="931.64" r="3.82"/><circle class="cls-9" cx="13.36" cy="1037.18" r="7.91" transform="translate(-54.62 2.14) rotate(-3.02)"/><path class="cls-5" d="M17,859.64a3.82,3.82,0,1,1-3.61,4A3.81,3.81,0,0,1,17,859.64Z"/><path class="cls-5" d="M504.41,954.29a3.82,3.82,0,1,1-3.61,4A3.82,3.82,0,0,1,504.41,954.29Z"/><path class="cls-5" d="M319.44,853.1a3.82,3.82,0,1,1-3.62,4A3.81,3.81,0,0,1,319.44,853.1Z"/><path class="cls-10" d="M746.86,908a4.36,4.36,0,1,1-4.13,4.59A4.35,4.35,0,0,1,746.86,908Z"/><path class="cls-9" d="M457.36,201.61a7.91,7.91,0,1,1,9.4,6.07A7.91,7.91,0,0,1,457.36,201.61Z"/><path class="cls-5" d="M348.49,303.37a3.82,3.82,0,1,1-5.28,1.13A3.81,3.81,0,0,1,348.49,303.37Z"/><path class="cls-5" d="M925.1,155a3.82,3.82,0,1,1-5.28,1.14A3.82,3.82,0,0,1,925.1,155Z"/><circle class="cls-9" cx="945.99" cy="495.35" r="7.91" transform="translate(-81.08 787.58) rotate(-43.52)"/><circle class="cls-5" cx="318.48" cy="67.22" r="3.82" transform="translate(-0.81 3.95) rotate(-0.71)"/><circle class="cls-5" cx="442.64" cy="2.63" r="3.82"/><path class="cls-10" d="M216.35,102.56a4.37,4.37,0,1,1,3.07-5.35A4.36,4.36,0,0,1,216.35,102.56Z"/><circle class="cls-10" cx="688.22" cy="1041.5" r="4.36" transform="translate(-546.34 856.47) rotate(-48.02)"/><circle class="cls-7" cx="175.91" cy="1412.18" r="12.27"/><circle class="cls-9" cx="52.64" cy="1454.45" r="7.91" transform="translate(-552.59 130.86) rotate(-22.5)"/><path class="cls-5" d="M255.85,1359.52a3.82,3.82,0,1,1,5.4,0A3.8,3.8,0,0,1,255.85,1359.52Z"/><circle class="cls-5" cx="95.45" cy="1388.73" r="3.82"/><circle class="cls-5" cx="163.64" cy="1062" r="3.82"/><circle class="cls-5" cx="213.27" cy="1464.27" r="3.82"/><path class="cls-5" d="M2.75,1179.52a3.82,3.82,0,1,1,5.4,0A3.82,3.82,0,0,1,2.75,1179.52Z"/><circle class="cls-10" cx="152.45" cy="1272" r="4.36"/><circle class="cls-4" cx="255.85" cy="128.09" r="7.91" transform="translate(53.22 330.09) rotate(-71.51)"/><path class="cls-10" d="M315.18,181.16a4.37,4.37,0,1,1,5.48,2.85A4.36,4.36,0,0,1,315.18,181.16Z"/><circle class="cls-5" cx="215" cy="230.75" r="3.82" transform="translate(-38.83 417.95) rotate(-83.43)"/><path class="cls-9" d="M1213.92,618a7.91,7.91,0,1,1,10-5A7.9,7.9,0,0,1,1213.92,618Z"/><path class="cls-9" d="M1334.43,570.68a7.91,7.91,0,1,1,10-5A7.9,7.9,0,0,1,1334.43,570.68Z"/><path class="cls-4" d="M1340.62,421.73a7.91,7.91,0,1,1-8,7.79A7.91,7.91,0,0,1,1340.62,421.73Z"/><path class="cls-4" d="M932.85,1169.18a7.91,7.91,0,1,1-8,7.79A7.92,7.92,0,0,1,932.85,1169.18Z"/><path class="cls-10" d="M1271.45,469.25a4.36,4.36,0,1,1-4.43,4.29A4.36,4.36,0,0,1,1271.45,469.25Z"/><path class="cls-5" d="M1256,354.73a3.82,3.82,0,1,1-3.88,3.76A3.82,3.82,0,0,1,1256,354.73Z"/><path class="cls-10" d="M78.46,262.07a4.37,4.37,0,1,1,5.48,2.85A4.37,4.37,0,0,1,78.46,262.07Z"/><path class="cls-5" d="M60,31.15a3.82,3.82,0,1,1-5.15,1.62A3.82,3.82,0,0,1,60,31.15Z"/><path class="cls-10" d="M157.27,77.75a4.37,4.37,0,1,1-5.88,1.86A4.37,4.37,0,0,1,157.27,77.75Z"/><path class="cls-10" d="M41,159.13A4.36,4.36,0,1,1,35.07,161,4.36,4.36,0,0,1,41,159.13Z"/><circle class="cls-4" cx="1237.64" cy="1321.36" r="7.91"/><path class="cls-10" d="M448.36,1355.45a4.36,4.36,0,1,1-4.36-4.36A4.37,4.37,0,0,1,448.36,1355.45Z"/><path class="cls-5" d="M1311.27,1235.73a3.82,3.82,0,1,1-3.82-3.82A3.82,3.82,0,0,1,1311.27,1235.73Z"/><path class="cls-5" d="M1276.09,1424.45a3.82,3.82,0,1,1-3.82-3.81A3.82,3.82,0,0,1,1276.09,1424.45Z"/><path class="cls-10" d="M1447.09,1246.91a4.37,4.37,0,1,1-4.36-4.36A4.36,4.36,0,0,1,1447.09,1246.91Z"/><circle class="cls-5" cx="1398" cy="1470" r="3.82"/><path class="cls-10" d="M1316.52,1399a4.36,4.36,0,1,1,6.17,0A4.37,4.37,0,0,1,1316.52,1399Z"/><circle class="cls-9" cx="342.55" cy="1209" r="7.91"/><circle class="cls-4" cx="213.27" cy="1302.82" r="7.91"/><path class="cls-10" d="M196.64,1172.45a4.37,4.37,0,1,1-4.37-4.36A4.37,4.37,0,0,1,196.64,1172.45Z"/><circle class="cls-5" cx="307.09" cy="1155.27" r="3.82"/><circle class="cls-10" cx="319.24" cy="1315.46" r="4.36"/><path class="cls-5" d="M1031.21,1020.52a3.82,3.82,0,1,1,5.4,0A3.82,3.82,0,0,1,1031.21,1020.52Z"/><circle class="cls-4" cx="988.64" cy="963.82" r="7.91"/><circle class="cls-4" cx="1352.73" cy="1185" r="7.91"/><circle class="cls-4" cx="504.55" cy="1156.64" r="7.91"/><path class="cls-10" d="M1114,971.27a4.36,4.36,0,1,1,6.17,0A4.35,4.35,0,0,1,1114,971.27Z"/><circle class="cls-10" cx="1164.55" cy="1061.18" r="4.36"/><circle class="cls-9" cx="917.41" cy="658.09" r="7.91"/><circle class="cls-4" cx="1019.7" cy="644.34" r="7.91"/><circle class="cls-4" cx="679.07" cy="680.61" r="7.91"/><circle class="cls-4" cx="953.98" cy="116.01" r="7.91" transform="matrix(0.51, -0.86, 0.86, 0.51, 370.7, 879.77)"/><circle class="cls-4" cx="87.23" cy="1069.94" r="7.91"/><path class="cls-10" d="M1052.41,708.11a4.36,4.36,0,1,1,5.33,3.13A4.37,4.37,0,0,1,1052.41,708.11Z"/><path class="cls-5" d="M946.14,753.48a3.82,3.82,0,1,1,4.65,2.73A3.82,3.82,0,0,1,946.14,753.48Z"/><path class="cls-9" d="M1080.27,457.82a7.91,7.91,0,1,1,10.9,2.48A7.91,7.91,0,0,1,1080.27,457.82Z"/><path class="cls-4" d="M974,433.84a7.91,7.91,0,1,1,10.91,2.48A7.91,7.91,0,0,1,974,433.84Z"/><circle class="cls-10" cx="1442.92" cy="636.63" r="4.36"/><path class="cls-5" d="M1412.87,724.65a3.82,3.82,0,1,1,5.26,1.2A3.81,3.81,0,0,1,1412.87,724.65Z"/><path class="cls-10" d="M900,596.77a4.36,4.36,0,1,1-6,1.55A4.36,4.36,0,0,1,900,596.77Z"/><circle class="cls-9" cx="1039.86" cy="71.18" r="7.91" transform="matrix(0.51, -0.86, 0.86, 0.51, 451.74, 931.7)"/><circle class="cls-4" cx="1192.91" cy="25.38" r="7.91"/><path class="cls-10" d="M1174.87,121.2a4.36,4.36,0,1,1,5.32,3.13A4.36,4.36,0,0,1,1174.87,121.2Z"/><path class="cls-5" d="M1068.59,166.57a3.82,3.82,0,1,1,4.66,2.73A3.82,3.82,0,0,1,1068.59,166.57Z"/><circle class="cls-10" cx="984.98" cy="60.27" r="4.36" transform="translate(181.36 633) rotate(-38.98)"/><circle class="cls-10" cx="1455" cy="1353.27" r="4.36"/><path class="cls-10" d="M1420.63,1054.06a4.36,4.36,0,1,1,5.79,2.15A4.38,4.38,0,0,1,1420.63,1054.06Z"/><path class="cls-5" d="M1373.52,827.25a3.82,3.82,0,1,1-4.91,2.25A3.82,3.82,0,0,1,1373.52,827.25Z"/><path class="cls-5" d="M1501.7,571.55a3.82,3.82,0,1,1-4.91,2.26A3.82,3.82,0,0,1,1501.7,571.55Z"/><circle class="cls-10" cx="1369.08" cy="960.69" r="4.36" transform="translate(-275.93 658.64) rotate(-24.65)"/><path class="cls-5" d="M1157.43,891.93a3.82,3.82,0,1,1,.83-5.33A3.83,3.83,0,0,1,1157.43,891.93Z"/><path class="cls-5" d="M983.06,844a3.82,3.82,0,1,1,.83-5.34A3.83,3.83,0,0,1,983.06,844Z"/><path class="cls-10" d="M1228.39,1008.27a4.36,4.36,0,1,1,1-6.09A4.35,4.35,0,0,1,1228.39,1008.27Z"/><path class="cls-5" d="M985,1247.86a3.82,3.82,0,1,1,3.18,4.36A3.81,3.81,0,0,1,985,1247.86Z"/><path class="cls-10" d="M1044.75,916.1a4.36,4.36,0,1,1,3.63,5A4.36,4.36,0,0,1,1044.75,916.1Z"/><circle class="cls-10" cx="1147.1" cy="1077.32" r="4.36" transform="translate(-291.49 1715.21) rotate(-67.12)"/><circle class="cls-5" cx="1212.29" cy="715.47" r="3.82" transform="translate(-188.81 851.38) rotate(-36.09)"/><path class="cls-10" d="M1221.67,607.8a4.36,4.36,0,1,1,3.63,5A4.36,4.36,0,0,1,1221.67,607.8Z"/><circle class="cls-7" cx="1381.49" cy="1360.48" r="12.27" transform="translate(-544.28 1585.97) rotate(-51.24)"/><circle class="cls-9" cx="1135.64" cy="1384.91" r="7.91"/><circle class="cls-9" cx="1008.24" cy="1131.27" r="7.91"/><circle class="cls-4" cx="1226.2" cy="885.28" r="7.91"/><circle class="cls-4" cx="1285.13" cy="1061.44" r="7.91" transform="translate(-52.61 67.12) rotate(-2.93)"/><circle class="cls-9" cx="1467.27" cy="1056.55" r="7.91" transform="translate(189.34 2335.63) rotate(-80.78)"/><path class="cls-10" d="M921,1066.75a4.37,4.37,0,1,1,5.32,3.12A4.35,4.35,0,0,1,921,1066.75Z"/><path class="cls-5" d="M801.41,1017.45a3.82,3.82,0,1,1,.84-5.34A3.82,3.82,0,0,1,801.41,1017.45Z"/><path class="cls-5" d="M1069.84,1150.21a3.82,3.82,0,1,1,3.18,4.36A3.82,3.82,0,0,1,1069.84,1150.21Z"/><circle class="cls-4" cx="1094.75" cy="1243.92" r="7.91"/><path class="cls-10" d="M1267.05,1214.56a4.36,4.36,0,1,1,5.32,3.13A4.36,4.36,0,0,1,1267.05,1214.56Z"/><path class="cls-5" d="M1160.77,1259.93a3.82,3.82,0,1,1,4.66,2.74A3.82,3.82,0,0,1,1160.77,1259.93Z"/><path class="cls-10" d="M1110.48,1161a4.36,4.36,0,1,1-6,1.55A4.36,4.36,0,0,1,1110.48,1161Z"/><path class="cls-10" d="M671,355a4.36,4.36,0,1,1,3.63,5A4.37,4.37,0,0,1,671,355Z"/><circle class="cls-10" cx="789.55" cy="439.95" r="4.36" transform="translate(97.11 1020.88) rotate(-69.12)"/><circle class="cls-9" cx="667.53" cy="455.84" r="7.91"/><path class="cls-5" d="M719.52,436.15a3.82,3.82,0,1,1,3.18,4.36A3.81,3.81,0,0,1,719.52,436.15Z"/><path class="cls-10" d="M757.09,465.86a4.36,4.36,0,1,1-6,1.55A4.37,4.37,0,0,1,757.09,465.86Z"/><path class="cls-5" d="M1423.15,1221.33a3.82,3.82,0,1,1,3.18,4.36A3.82,3.82,0,0,1,1423.15,1221.33Z"/><path class="cls-10" d="M1436.3,1114.26a4.36,4.36,0,1,1,3.64,5A4.38,4.38,0,0,1,1436.3,1114.26Z"/><path class="cls-10" d="M1335.88,692.1a4.36,4.36,0,1,1,3.64,5A4.37,4.37,0,0,1,1335.88,692.1Z"/><path class="cls-9" d="M800.87,886.53a7.91,7.91,0,1,1-10.73,3.19A7.91,7.91,0,0,1,800.87,886.53Z"/><path class="cls-5" d="M812.05,765.23a3.82,3.82,0,1,1,5.27,1.19A3.82,3.82,0,0,1,812.05,765.23Z"/><path class="cls-5" d="M741.61,883.16a3.82,3.82,0,1,1-4.91,2.25A3.82,3.82,0,0,1,741.61,883.16Z"/><path class="cls-10" d="M704,748a4.36,4.36,0,1,1,3.64,5A4.37,4.37,0,0,1,704,748Z"/><path class="cls-5" d="M672.63,1260.39a3.82,3.82,0,1,1-5,1.94A3.82,3.82,0,0,1,672.63,1260.39Z"/><path class="cls-10" d="M719.15,1221.06a4.36,4.36,0,1,1-5.76,2.21A4.36,4.36,0,0,1,719.15,1221.06Z"/><path class="cls-5" d="M904.31,1360.27a3.82,3.82,0,1,1,2.2-4.93A3.8,3.8,0,0,1,904.31,1360.27Z"/><path class="cls-10" d="M804.93,1402.23a4.36,4.36,0,1,1,2.51-5.63A4.36,4.36,0,0,1,804.93,1402.23Z"/><path class="cls-10" d="M796.51,1263.32a4.36,4.36,0,1,1,2.51-5.63A4.36,4.36,0,0,1,796.51,1263.32Z"/><path class="cls-9" d="M421.62,1261.92a7.91,7.91,0,1,1,6.15,9.34A7.91,7.91,0,0,1,421.62,1261.92Z"/><path class="cls-9" d="M736.39,624.71a7.91,7.91,0,1,1,6.15,9.34A7.9,7.9,0,0,1,736.39,624.71Z"/><path class="cls-5" d="M579.18,1176.4a3.82,3.82,0,1,1,5.33-.87A3.8,3.8,0,0,1,579.18,1176.4Z"/><path class="cls-10" d="M491,1280.27a4.37,4.37,0,1,1,6.09-1A4.36,4.36,0,0,1,491,1280.27Z"/><path class="cls-10" d="M660.49,1480.73a4.36,4.36,0,1,1,6.09-1A4.36,4.36,0,0,1,660.49,1480.73Z"/><path class="cls-5" d="M525.55,1355.44a3.82,3.82,0,1,1-3.14,4.38A3.81,3.81,0,0,1,525.55,1355.44Z"/><path class="cls-10" d="M443.43,1085.53a4.36,4.36,0,1,1-3.6,5A4.36,4.36,0,0,1,443.43,1085.53Z"/><path class="cls-10" d="M399.19,1220.41a4.36,4.36,0,1,1-3.59,5A4.37,4.37,0,0,1,399.19,1220.41Z"/><path class="cls-9" d="M586.21,1454a7.91,7.91,0,1,1,7,8.75A7.93,7.93,0,0,1,586.21,1454Z"/><path class="cls-9" d="M929.29,1274.81a7.91,7.91,0,1,1-5.06-10A7.9,7.9,0,0,1,929.29,1274.81Z"/><path class="cls-5" d="M745.2,1409.35a3.82,3.82,0,1,1-5.4.27A3.82,3.82,0,0,1,745.2,1409.35Z"/><path class="cls-10" d="M867.47,1205.76a4.37,4.37,0,1,1-6.16.31A4.37,4.37,0,0,1,867.47,1205.76Z"/><path class="cls-5" d="M981.22,1450a3.82,3.82,0,1,1,3.63-4A3.83,3.83,0,0,1,981.22,1450Z"/><path class="cls-10" d="M873.72,1459a4.37,4.37,0,1,1,4.14-4.58A4.36,4.36,0,0,1,873.72,1459Z"/><path class="cls-10" d="M932.91,1329.94a4.36,4.36,0,1,1,4.13-4.57A4.36,4.36,0,0,1,932.91,1329.94Z"/><path class="cls-10" d="M1042.86,1272a4.36,4.36,0,1,1,4.13-4.57A4.35,4.35,0,0,1,1042.86,1272Z"/><path class="cls-10" d="M1117,1485.81a4.36,4.36,0,1,1,4.14-4.57A4.36,4.36,0,0,1,1117,1485.81Z"/></g></g></svg>