<svg xmlns="http://www.w3.org/2000/svg" xmlns:xlink="http://www.w3.org/1999/xlink" viewBox="0 0 358.7 301.04"><defs><style>.cls-1{isolation:isolate;}.cls-2{fill:#6d79ff;opacity:0.36;}.cls-12,.cls-3{fill:#8aa8ff;}.cls-3{opacity:0.6;}.cls-26,.cls-29,.cls-3{mix-blend-mode:multiply;}.cls-4{fill:url(#linear-gradient);}.cls-5{fill:#513983;}.cls-6{fill:url(#linear-gradient-2);}.cls-7{fill:url(#linear-gradient-3);}.cls-8{fill:url(#linear-gradient-4);}.cls-9{fill:#87a7f9;}.cls-10{fill:#b8d4f5;}.cls-11{fill:#eff8ff;}.cls-13{fill:#e9f1ff;}.cls-14{fill:#c4d5f2;}.cls-15{fill:#fff;}.cls-16{fill:#482768;}.cls-17{fill:#06005e;}.cls-18{fill:#ef487d;}.cls-19{fill:#f89ab5;}.cls-20{fill:#ffd32f;}.cls-21{fill:#dd8eac;}.cls-22{fill:#2c2c6d;}.cls-23{fill:#5f2c82;}.cls-24{fill:#522872;}.cls-25{fill:#c6839e;}.cls-26{fill:#ccc;}.cls-27{fill:#dd8ca6;}.cls-28{fill:#422360;}.cls-29{fill:#e6e6e6;}</style><linearGradient id="linear-gradient" x1="363.01" y1="-88.44" x2="456.01" y2="-88.44" gradientTransform="translate(-119.47 301.94) rotate(-10.06)" gradientUnits="userSpaceOnUse"><stop offset="0" stop-color="#513983"/><stop offset="1" stop-color="#d671d9"/></linearGradient><linearGradient id="linear-gradient-2" x1="-6151.05" y1="1967.09" x2="-6151.05" y2="1853" gradientTransform="matrix(-0.89, 0.45, 0.45, 0.89, -6255.89, 1315.93)" xlink:href="#linear-gradient"/><linearGradient id="linear-gradient-3" x1="-6463.53" y1="825.72" x2="-6463.53" y2="742.6" gradientTransform="matrix(-1, -0.09, -0.09, 1, -6266.19, -1181.51)" xlink:href="#linear-gradient"/><linearGradient id="linear-gradient-4" x1="286.37" y1="285.67" x2="286.37" y2="142.22" gradientTransform="matrix(1, 0, 0, 1, 0, 0)" xlink:href="#linear-gradient"/></defs><g class="cls-1"><g id="Ñëîé_2" data-name="Ñëîé 2"><path class="cls-2" d="M68.86,290.57S-37.21,228.7,17.34,153.45s100-137.12,180.31-100.33S252.2,86.56,309.78,76.53s72.73,212.37-16.67,215.71S68.86,290.57,68.86,290.57Z"/><path class="cls-2" d="M280.73,55.73c0,8.31-1.56,13.38-9.09,13.38s-21.21-8.41-21.21-16.72,10.65-10,18.18-10S280.73,47.42,280.73,55.73Z"/><rect class="cls-3" x="105.46" y="286.45" width="152.64" height="12.81" rx="6.41"/><path class="cls-4" d="M242.18,185.28s-17.87-4.57-16.14-17.34,14.27-11.6,15.54-18.72-1.67-15.56,5.5-20.82,16-4.16,17.9-6.2,4.57-8.07,7.53-10,6.8-9.63,14.91-11.84,12.45.38,17.9-5.47c0,0,3.35,7.39,3.4,10.71S304,115.27,298,117s-14.8,11-14.46,17,2.17,8.51,4.18,12,4.59,8.86-3.38,13.67-8.66,6.79-7.43,13.05-.3,12.24-15.85,13.58C244.54,187.7,242.18,185.28,242.18,185.28Z"/><path class="cls-5" d="M236.77,216.25a.7.7,0,0,1-.45-.72,155.36,155.36,0,0,1,12.27-48.31A151.31,151.31,0,0,1,269,133.43c14.1-17.62,27.57-26.28,27.7-26.37a.72.72,0,1,1,.77,1.21c-.13.08-13.44,8.65-27.39,26.1a151.45,151.45,0,0,0-32.37,81.28.7.7,0,0,1-.77.65A.46.46,0,0,1,236.77,216.25Z"/><path class="cls-5" d="M249.85,166.23a.72.72,0,0,1-.09-1.29l33.41-18.87a.72.72,0,0,1,1,.27.73.73,0,0,1-.27,1l-33.41,18.87A.69.69,0,0,1,249.85,166.23Z"/><path class="cls-5" d="M251.42,162.89a.72.72,0,0,1-.32-.25c-.24-.34-.38-.53,1.9-14.7,1.11-6.86,2.27-13.75,2.28-13.82a.71.71,0,0,1,.82-.58.71.71,0,0,1,.59.82c-1.75,10.4-4.33,26.25-4.31,27.7a.74.74,0,0,1-.28.75A.75.75,0,0,1,251.42,162.89Zm.85-1.08Z"/><path class="cls-5" d="M283.93,118.77l-.11-.06a.72.72,0,0,1-.23-1l7-11.16a.71.71,0,0,1,1-.23.72.72,0,0,1,.23,1l-7,11.16A.72.72,0,0,1,283.93,118.77Z"/><path class="cls-6" d="M157.43,269.77a60,60,0,0,1-4.28-16.45c-.66-8.13-2.92-29.3-16.16-38.94s-62-30-115.44-3.64c0,0,19.71,9.46,24.55,16.43,5.86,8.42,24.12,40,36.15,46.35s33.73,5.57,50.32,1.33S157.43,269.77,157.43,269.77Z"/><path class="cls-5" d="M157.43,270.49a.72.72,0,0,1-.58-.29c-.09-.12-9.39-12.38-30.1-25.41-19.11-12-52.12-27.18-100.85-31.09a.72.72,0,0,1-.66-.77.73.73,0,0,1,.77-.67c49.07,3.94,82.33,19.22,101.58,31.35,20.9,13.17,30.32,25.6,30.42,25.72a.72.72,0,0,1-.15,1A.7.7,0,0,1,157.43,270.49Z"/><path class="cls-5" d="M137,251.63a.71.71,0,0,1-.69-.52l-10.81-37a.72.72,0,0,1,.49-.89.73.73,0,0,1,.9.49l10.81,37a.72.72,0,0,1-.49.89A.76.76,0,0,1,137,251.63Z"/><path class="cls-5" d="M132,253.89c-6.85,0-18.88-1.15-37.8-6.48a.72.72,0,0,1-.49-.89.71.71,0,0,1,.89-.5c32,9,44.27,5.86,44.39,5.83a.72.72,0,1,1,.38,1.39A30.61,30.61,0,0,1,132,253.89Z"/><path class="cls-5" d="M108.21,234.55a.72.72,0,0,1-.57-.28l-22-28.59a.72.72,0,0,1,.14-1,.73.73,0,0,1,1,.13l22,28.59a.72.72,0,0,1-.57,1.16Z"/><path class="cls-5" d="M60.9,230.59a.72.72,0,0,1-.12-1.43l26.69-4.42a.72.72,0,1,1,.23,1.42L61,230.58Z"/><path class="cls-5" d="M63.16,219.26a.73.73,0,0,1-.35-.09L42.64,207.9a.72.72,0,1,1,.71-1.26l20.16,11.27a.73.73,0,0,1,.28,1A.73.73,0,0,1,63.16,219.26Z"/><path class="cls-7" d="M129.06,215.65a43.72,43.72,0,0,1,3.7-11.81c2.73-5.28,9.49-19.24,5-30.3s-26.74-42.46-69.94-46.76c0,0,8.53,13.44,8.84,19.62.37,7.46-.54,34,4.46,42.58s18.7,16.45,30.59,20.23A142.06,142.06,0,0,1,129.06,215.65Z"/><path class="cls-5" d="M129,216.37a.71.71,0,0,1-.62-.66c0-.11-1-11.25-8.8-27.26-7.17-14.77-21.7-36.83-50.27-58a.72.72,0,0,1-.15-1,.73.73,0,0,1,1-.15C99,150.66,113.65,173,120.89,187.9c7.85,16.23,8.85,27.23,8.89,27.69a.71.71,0,0,1-.66.78Z"/><path class="cls-5" d="M123.62,196.84l-.1,0a.73.73,0,0,1-.5-.89l7.58-27a.71.71,0,0,1,.89-.5.73.73,0,0,1,.5.89l-7.58,27A.72.72,0,0,1,123.62,196.84Z"/><path class="cls-5" d="M124.34,198.68l-.12,0c-.36-.11-9.16-2.84-25.75-21.07a.72.72,0,0,1,0-1,.72.72,0,0,1,1,.05c16.25,17.85,25,20.63,25.1,20.66a.72.72,0,0,1,.49.89A.71.71,0,0,1,124.34,198.68Z"/><path class="cls-5" d="M112.41,175.18a.73.73,0,0,1-.63-.65l-2.59-26.16a.72.72,0,1,1,1.44-.14l2.59,26.16a.72.72,0,0,1-.65.79Z"/><path class="cls-5" d="M102.89,162.05l-.18-.05-18.2-7.56a.72.72,0,1,1,.56-1.33l18.19,7.55a.73.73,0,0,1-.37,1.39Z"/><path class="cls-5" d="M90.46,148.36a.73.73,0,0,1-.54-.37l-8.11-14.74a.72.72,0,0,1,1.26-.7l8.12,14.75a.73.73,0,0,1-.29,1A.75.75,0,0,1,90.46,148.36Z"/><path class="cls-2" d="M69.41,63.08c-2.56-2.56-2.85-6.43-.64-8.64s6.08-1.92,8.64.64,2.85,6.43.64,8.64S72,65.65,69.41,63.08Z"/><path class="cls-2" d="M96.54,38.53a2.47,2.47,0,1,1,1.66,3.35A2.65,2.65,0,0,1,96.54,38.53Z"/><path class="cls-8" d="M233.24,285.67s-.67-11.38-4.55-20.88-13.38-34.52-4-52.85S277.13,143,352.07,142.22c0,0-16.73,21.81-18.2,32.38-1.78,12.77-4.28,58.61-14.18,72.53S285,272.55,264,277.24,233.24,285.67,233.24,285.67Z"/><path class="cls-5" d="M233.24,286.39h-.12a.72.72,0,0,1-.59-.84c0-.19,3.53-19.45,19.46-46.07a242.21,242.21,0,0,1,34.92-44.8,316.87,316.87,0,0,1,61.11-48,.71.71,0,0,1,1,.23.73.73,0,0,1-.24,1c-52.47,32.11-80.89,67.9-95.5,92.28C237.45,266.54,234,285.6,234,285.79A.72.72,0,0,1,233.24,286.39Z"/><path class="cls-5" d="M245.55,253.62l-.13,0a.73.73,0,0,1-.71-.59l-8.9-47.61a.72.72,0,1,1,1.42-.26l8.9,47.6A.72.72,0,0,1,245.55,253.62Z"/><path class="cls-5" d="M244.05,256.68l-.14,0a.72.72,0,0,1-.14-1.43h0c.16,0,15.74-3.46,46.56-31.82a.72.72,0,0,1,1,1.06C260.11,253.22,244.7,256.55,244.05,256.68Z"/><path class="cls-5" d="M268,218.1h-.14a.72.72,0,0,1-.57-.84l8.45-44.59a.72.72,0,0,1,.85-.57.71.71,0,0,1,.57.84l-8.45,44.58A.73.73,0,0,1,268,218.1Z"/><path class="cls-5" d="M286.37,197a.74.74,0,0,1-.69-.51.72.72,0,0,1,.48-.9l32.44-10.22a.72.72,0,0,1,.43,1.38l-32.44,10.21A.57.57,0,0,1,286.37,197Z"/><path class="cls-5" d="M309.84,175.35a.72.72,0,0,1-.4-.12.74.74,0,0,1-.2-1l16.2-24.11a.71.71,0,0,1,1-.19.72.72,0,0,1,.2,1L310.44,175A.72.72,0,0,1,309.84,175.35Z"/><path class="cls-9" d="M249,62.7c0-6.34-4.51-11.47-10.07-11.47H136.69c-5.56,0-10.07,5.13-10.07,11.47V269h0V281.5c0,6.34,4.51,11.48,10.07,11.48H238.94c5.56,0,10.07-5.14,10.07-11.48V270.62h0V78.15h0Z"/><path class="cls-10" d="M231.07,293H128.82c-5.56,0-10.07-5.14-10.07-11.48V62.7c0-6.34,4.51-11.47,10.07-11.47H231.07c5.56,0,10.06,5.13,10.06,11.47V281.5C241.13,287.84,236.63,293,231.07,293Z"/><polygon class="cls-11" points="241.13 270.62 118.75 268.96 118.75 78.15 241.13 78.15 241.13 270.62"/><path class="cls-12" d="M198,67.44H161.87a1.58,1.58,0,0,1-1.45-1.68h0a1.58,1.58,0,0,1,1.45-1.68H198a1.58,1.58,0,0,1,1.46,1.68h0A1.58,1.58,0,0,1,198,67.44Z"/><path class="cls-12" d="M209.15,65.76a1.69,1.69,0,1,1-1.69-1.68A1.69,1.69,0,0,1,209.15,65.76Z"/><path class="cls-13" d="M128.82,53.35H231.07c5.56,0,10.06,5.13,10.06,11.47V62.7c0-6.34-4.5-11.48-10.06-11.47H128.82c-5.56,0-10.07,5.13-10.07,11.47v2.12C118.75,58.48,123.26,53.35,128.82,53.35Z"/><path class="cls-14" d="M231.07,290.85H128.82c-5.56,0-10.07-5.13-10.07-11.47v2.12c0,6.34,4.51,11.48,10.07,11.48H231.07c5.56,0,10.06-5.14,10.06-11.48v-2.12C241.13,285.72,236.63,290.85,231.07,290.85Z"/><polygon class="cls-15" points="241.13 149.74 249.01 146.01 249.01 152.12 241.13 155.54 241.13 149.74"/><polygon class="cls-15" points="241.13 112.54 249.01 109.22 249.01 111.19 241.13 114.61 241.13 112.54"/><path class="cls-16" d="M330.29,206.54h-.05c-8.7-.74-18-4.49-18.13-4.53a.28.28,0,0,1-.15-.37.28.28,0,0,1,.37-.15c.09,0,9.31,3.74,17.92,4.49.9-.2,15.69-3.5,20.24-6a.3.3,0,0,1,.39.12.29.29,0,0,1-.11.38c-4.75,2.61-19.8,5.93-20.44,6.07Z"/><circle class="cls-17" cx="318.87" cy="105.64" r="0.85"/><circle class="cls-17" cx="325.34" cy="105.45" r="0.85"/><polygon class="cls-18" points="159.56 62.21 155.62 39.48 144.56 46.87 142.71 11.6 147.74 39.56 157.6 33.48 159.56 62.21"/><polygon class="cls-18" points="189.31 55.74 192.24 32.87 179.49 36.66 188.13 2.41 184.68 30.61 195.91 27.71 189.31 55.74"/><polygon class="cls-18" points="128.14 65.63 119.97 55.75 116.67 62.36 106.06 45.86 116.19 57.96 119.27 52.31 128.14 65.63"/><polygon class="cls-18" points="254.64 86.53 262.13 76.13 254.9 74.61 268.19 60.17 259.04 73.03 265.29 74.59 254.64 86.53"/><polygon class="cls-18" points="228.32 74.41 237.13 53.09 223.83 53.43 241.11 22.62 230.42 48.94 242.01 49.07 228.32 74.41"/><rect class="cls-18" x="133.32" y="205.1" width="96.66" height="19.04" rx="9.52"/><polygon class="cls-15" points="142.4 211.87 145.48 211.87 145.48 219.69 147.71 219.69 147.71 211.87 150.79 211.87 150.79 210.06 142.4 210.06 142.4 211.87"/><path class="cls-15" d="M159.82,215.4a3.29,3.29,0,0,0,.51-1.85,3.39,3.39,0,0,0-.5-1.85,3.33,3.33,0,0,0-1.46-1.22,5.36,5.36,0,0,0-2.22-.42H152v9.63h2.22V217h2l1.86,2.69h2.39l-2.16-3.1A3.23,3.23,0,0,0,159.82,215.4Zm-2.26-.61a2.35,2.35,0,0,1-1.53.44h-1.82v-3.36H156a2.35,2.35,0,0,1,1.53.44,1.74,1.74,0,0,1,0,2.48Z"/><polygon class="cls-15" points="165.56 214.34 162.99 210.06 160.62 210.06 164.35 216.25 164.35 219.69 166.58 219.69 166.58 216.28 170.32 210.06 168.13 210.06 165.56 214.34"/><path class="cls-15" d="M178.17,210.06l-4.29,9.63h2.28l.86-2.07h4.47l.85,2.07h2.34l-4.31-9.63Zm-.44,5.87,1.53-3.68,1.52,3.68Z"/><path class="cls-15" d="M188.71,212.18a3.46,3.46,0,0,1,4.12.7l1.43-1.32a4.44,4.44,0,0,0-1.73-1.24,6,6,0,0,0-2.3-.43,5.81,5.81,0,0,0-2.72.64,4.7,4.7,0,0,0-1.89,1.78,5.18,5.18,0,0,0,0,5.13,4.79,4.79,0,0,0,1.88,1.77,5.54,5.54,0,0,0,2.69.64,6.78,6.78,0,0,0,2.08-.32,5.79,5.79,0,0,0,1.81-.9v-3.91h-2v2.82a3.57,3.57,0,0,1-1.73.41,3.29,3.29,0,0,1-1.62-.39,2.84,2.84,0,0,1-1.11-1.09,3.25,3.25,0,0,1-.4-1.6,3.28,3.28,0,0,1,.4-1.61A2.77,2.77,0,0,1,188.71,212.18Z"/><path class="cls-15" d="M199.17,210.06l-4.29,9.63h2.28l.86-2.07h4.47l.85,2.07h2.34l-4.31-9.63Zm-.44,5.87,1.53-3.68,1.53,3.68Z"/><rect class="cls-15" x="206.68" y="210.06" width="2.23" height="9.63"/><polygon class="cls-15" points="217.82 215.9 213.04 210.06 211.19 210.06 211.19 219.69 213.39 219.69 213.39 213.84 218.19 219.69 220.02 219.69 220.02 210.06 217.82 210.06 217.82 215.9"/><circle class="cls-18" cx="181.65" cy="150.8" r="42.66"/><path class="cls-15" d="M204.56,127.9a6.35,6.35,0,0,0-9,0l-13.93,13.93L167.72,127.9a6.34,6.34,0,0,0-9,9l13.93,13.94-13.92,13.92a6.34,6.34,0,1,0,9,9l13.92-13.92,13.93,13.92a6.34,6.34,0,0,0,9-9l-13.92-13.92,13.93-13.94A6.34,6.34,0,0,0,204.56,127.9Z"/><path class="cls-17" d="M43.88,100.17s4.36-1.59,6.73,0,5.57,2.63,6.83,6.12,1.77,5.46.9,9.49c-1,4.67-2.3,6-1.31,8.25,1.85,4.2,1.5,12.92,1.5,12.92L58,142.4,49.5,129.85,39.12,103.17Z"/><path class="cls-19" d="M49.7,134.68l3.77,27.86.07.46a3.6,3.6,0,0,0,5.85,2.31L80.58,148.1a2.13,2.13,0,0,0-2.49-3.46L55,159.23,60.94,162l-.23-28.11a5.53,5.53,0,1,0-11.06.09A5.21,5.21,0,0,0,49.7,134.68Z"/><path class="cls-20" d="M61.51,148.62c0-11.08.54-13.79.67-14.78.41-3.2-2.49-6-5.69-6.42s-7,1.79-7.37,5c-.92,7.16,2.12,18.1,3.3,24.72l9.06-2.66C61.53,151.69,61.5,151.21,61.51,148.62Z"/><path class="cls-19" d="M78.7,147.05a2.28,2.28,0,0,0,2,.65,6.58,6.58,0,0,0,3.48-1.49c1.34-1.29,6.06-6.64,7.47-8.25a.46.46,0,0,0,.11-.4.44.44,0,0,0-.26-.32l-.26-.13a.49.49,0,0,0-.47,0l-4.84,3.48.19-.49a.44.44,0,0,0-.07-.43.44.44,0,0,0-.4-.15l-2.53.43a2.91,2.91,0,0,0-1.8,1l-3.06,3.57A2.2,2.2,0,0,0,78.7,147.05Z"/><path class="cls-21" d="M81.81,140.53a13.07,13.07,0,0,1,4-.29l-2.13,2.43L89.52,138l-2.88,2.07-.74.53.19-.49a.44.44,0,0,0-.07-.43.44.44,0,0,0-.4-.15l-2.53.43A3,3,0,0,0,81.81,140.53Z"/><path class="cls-17" d="M48.45,108.1s.31-6.18-2.42-8.26-6.05-.53-8.39.52-8.12,6.94-11.22,13.2-.05,13.91-1.23,18.69c-2.64,10.64-15,10.1-9.26,24.79,2.29,5.84,16.68,15.15,20,15.78,2.06.4,12.23-4,15.67-4.43,4.55-.55-3.14-10.63-3.14-10.63l11.29-9Z"/><path class="cls-17" d="M25.2,132.17a15.14,15.14,0,0,0,3.73-6.69c1.07-4.33-1.36-10.94.5-16.86a35.23,35.23,0,0,0-3,4.94C23.29,119.87,26.34,127.39,25.2,132.17Z"/><path class="cls-17" d="M52.22,151s.78,1,1.7,2.44l5.85-4.66-.86-3.1Z"/><path class="cls-22" d="M39.69,166.05c-3.34-.64-17.73-9.94-20-15.78a16.48,16.48,0,0,1-1.43-8c-3.17,3.26-5.48,6.73-2.31,14.8,2.29,5.84,16.68,15.15,20,15.78,2.06.4,12.23-4,15.67-4.43,2.36-.28,1.43-3.13,0-5.8C47.21,164,41.22,166.34,39.69,166.05Z"/><path class="cls-19" d="M51.73,188.57,37.46,292.44a2.91,2.91,0,0,1-5.8-.38l-.54-104.84a10.35,10.35,0,1,1,20.7-.11A10,10,0,0,1,51.73,188.57Z"/><path class="cls-19" d="M66.68,189.11l3.78,104.76a3.1,3.1,0,0,1-6.15.65L46.14,191.28a10.35,10.35,0,0,1,20.39-3.59A11.6,11.6,0,0,1,66.68,189.11Z"/><path class="cls-19" d="M43.87,119.89S44.45,129,43,130l.56,19.11,15.21-.16L53.88,129.5l-2.57-1.66-.51-6.49Z"/><path class="cls-23" d="M33.32,177.74s-9.15,16.07-3.19,44.63c11.68,4.7,29.63,4.51,38.4-4.78,0,0,1.46-25.66-3.92-41.45C62.08,168.72,33.32,177.74,33.32,177.74Z"/><path class="cls-24" d="M30.13,222.37A44.51,44.51,0,0,0,38,224.61c-5.73-18.14,1.5-43.68,1.5-43.68L34,177.68l-.68.06S24.17,193.81,30.13,222.37Z"/><path class="cls-20" d="M38.25,161.13c.94-3.5-2.76-9.66-2.76-9.66l-1.75-20.35L43,130l1.73,1.7,6.74,5.23.16-8.85,3.43-.67,8.11,16a8.54,8.54,0,0,1,0,4.49c-.71,2.5-3.32,9.15-3.47,11.35-.15,2,2.71,10.5,4.39,15.42,1.05,3.08-2.3,6.18-6.85,7.3-8.35,2.06-17.17-.28-24.86-2.76C32.39,179.13,37.32,164.62,38.25,161.13Z"/><path class="cls-25" d="M50.81,121.54s-1.15,2.54-6.82,2.24l-.12-3.92Z"/><path class="cls-19" d="M54.2,115.43c.11,3.88-2,7-5.45,7.16a7.66,7.66,0,0,1-7.61-7.25l-.36-11.85,13-.4Z"/><path class="cls-26" d="M47.93,103.61s-.14,4.21-5.68,7.81l2.12-6.35Z"/><path class="cls-17" d="M48.79,102.73s-5.69,10-12.71,13.43l-1-13.6Z"/><path class="cls-15" d="M51,117.23a1.31,1.31,0,0,1,1.46,1.15l-2.61.31A1.3,1.3,0,0,1,51,117.23Z"/><path class="cls-17" d="M46.8,108.89a2.93,2.93,0,0,1,.82.08.28.28,0,0,1,.21.34.29.29,0,0,1-.34.21,2.8,2.8,0,0,0-2,.36.28.28,0,1,1-.32-.46A3.43,3.43,0,0,1,46.8,108.89Z"/><path class="cls-17" d="M52.43,108.57a3.26,3.26,0,0,1,.81.05.29.29,0,0,1,.23.33.28.28,0,0,1-.33.22,2.93,2.93,0,0,0-2.06.37.28.28,0,1,1-.32-.46A3.19,3.19,0,0,1,52.43,108.57Z"/><path class="cls-27" d="M50,111c.2.61.41,1.23.64,1.83.11.31.22.61.34.9a5,5,0,0,0,.36.73A.86.86,0,0,1,50,115.51a.94.94,0,0,1-.12-.22l0-.06a5.55,5.55,0,0,1-.29-1.11q-.09-.5-.15-1c-.09-.66-.17-1.31-.24-2a.42.42,0,0,1,.38-.46A.43.43,0,0,1,50,111Z"/><path class="cls-17" d="M53.41,111.23a.26.26,0,0,1-.2-.08,1.22,1.22,0,0,0-1.75.09.28.28,0,0,1-.4,0,.29.29,0,0,1,0-.4,1.78,1.78,0,0,1,2.53-.08.28.28,0,0,1,0,.4A.27.27,0,0,1,53.41,111.23Z"/><path class="cls-17" d="M47.81,111.52a.29.29,0,0,1-.21-.08,1.2,1.2,0,0,0-1.74.09.28.28,0,0,1-.39-.41A1.75,1.75,0,0,1,48,111a.26.26,0,0,1,0,.39A.25.25,0,0,1,47.81,111.52Z"/><path class="cls-26" d="M54.71,109a8.09,8.09,0,0,1-7.38-5.36Z"/><path class="cls-17" d="M47.33,103.6A21.19,21.19,0,0,0,54.71,109l-.57-6-7-1.47Z"/><path class="cls-28" d="M70.51,292.78l6.87,4.42a1.73,1.73,0,0,1,.77,1.77l-.06.31H65.26a1.64,1.64,0,0,1-1.11-.7,1.49,1.49,0,0,1-.32-1.22l.33-4C65.93,293.72,69.72,293.56,70.51,292.78Z"/><path class="cls-28" d="M37.35,293.3l1.2,4.31a2.33,2.33,0,0,1,.07.53v1a.39.39,0,0,1-.39.39l-8.65.06a.41.41,0,0,1-.3-.14.36.36,0,0,1-.09-.3l.17-1.33a2.41,2.41,0,0,1,.21-.74l1.88-4C33,292.3,34.93,291.48,37.35,293.3Z"/><path class="cls-19" d="M39.79,115.78a2,2,0,0,0,3.11-.66,3,3,0,0,0-.65-3.7,2,2,0,0,0-3.11.66A3,3,0,0,0,39.79,115.78Z"/><path class="cls-29" d="M39.27,113.56a2.29,2.29,0,0,1,2.44-2.32,2,2,0,0,1,.47.14,2,2,0,0,0-1-.42,2.28,2.28,0,0,0-2.43,2.32,2.79,2.79,0,0,0,1.55,2.82A2.94,2.94,0,0,1,39.27,113.56Z"/><path class="cls-29" d="M42.37,113.75a.69.69,0,1,1-.75-.63A.7.7,0,0,1,42.37,113.75Z"/><path class="cls-25" d="M43,130l1.73,1.7c-1.28-2.69,1.35-7.9,1.35-7.9L44,122.54C44,125.29,43.93,129.3,43,130Z"/><path class="cls-17" d="M43.31,98.83s9.46-2.65,13.43,3.47c1.13,1.73-1.39,3.44-3.86,3.22S43.31,98.83,43.31,98.83Z"/><path class="cls-19" d="M34.81,110.58A2.3,2.3,0,0,0,38,111l2.33-2.28a2.29,2.29,0,0,0-.38-3.15,2.15,2.15,0,0,0-3-.43l-2.49,2.43A2.15,2.15,0,0,0,34.81,110.58Z"/><path class="cls-19" d="M37.73,106a.8.8,0,0,1-.36-.09.64.64,0,0,1-.21-.88,5.57,5.57,0,0,1,4.53-2.57.64.64,0,1,1,0,1.27,4.3,4.3,0,0,0-3.43,2A.65.65,0,0,1,37.73,106Z"/><path class="cls-19" d="M43,106.25a.62.62,0,0,1-.35-.08,4.31,4.31,0,0,0-4,0,.63.63,0,1,1-.61-1.11,5.55,5.55,0,0,1,5.21,0,.65.65,0,0,1,.23.87A.66.66,0,0,1,43,106.25Z"/><path class="cls-19" d="M43.09,108.5a.69.69,0,0,1-.47-.18,4.33,4.33,0,0,0-3.84-1,.64.64,0,0,1-.33-1.23,5.59,5.59,0,0,1,5.06,1.29.64.64,0,0,1-.42,1.09Z"/><path class="cls-19" d="M41.64,110.47A.63.63,0,0,1,41,110a3,3,0,0,0-2.57-2.15.63.63,0,0,1-.6-.66.64.64,0,0,1,.66-.61,4.2,4.2,0,0,1,3.72,3.05.63.63,0,0,1-.42.79A.45.45,0,0,1,41.64,110.47Z"/><path class="cls-19" d="M34.81,142.66,18.13,131.54l-.51-.34a3.59,3.59,0,0,1-1-5,4.16,4.16,0,0,1,.41-.51l16.7-17.15a2.18,2.18,0,0,1,3.31,2.81L22.87,130.65l-1.09-5.82,18.4,7.94a5.65,5.65,0,0,1-4.47,10.38A6.46,6.46,0,0,1,34.81,142.66Z"/><path class="cls-20" d="M24.44,136.88c8.78,6.84,11.88,7.53,12.68,8.15,2.62,2,6.56.88,8.57-1.73s2-7-.63-9.05c-5.84-4.47-10.61-5-17-7.39-3.76-.59-7.67,3.67-6.63,7.6A26.9,26.9,0,0,0,24.44,136.88Z"/><path class="cls-17" d="M53.19,111.08a.63.63,0,1,1-.63-.63A.63.63,0,0,1,53.19,111.08Z"/><circle class="cls-17" cx="47.14" cy="111.42" r="0.63"/></g></g></svg>