<svg id="Ñëîé_2" data-name="Ñëîé 2" xmlns="http://www.w3.org/2000/svg" viewBox="0 0 323.48 281.22"><defs><style>.cls-1{fill:#c6ae9b;}.cls-2{fill:#fff;}.cls-3{fill:#002f4b;}.cls-4{fill:#5e264b;}.cls-5{fill:#f3d300;}.cls-6{fill:#b19100;}.cls-7{fill:#212121;}.cls-8{fill:#dd3131;}.cls-9{fill:#444241;}.cls-10{fill:#f7a577;}.cls-11{fill:#001b28;}.cls-12{fill:#b7b4b3;}.cls-13{fill:#262626;}.cls-14{fill:#c1c1c1;}.cls-15{fill:#3f1734;}.cls-16{fill:#ededeb;}.cls-17{fill:#f0c35c;}.cls-18{fill:#cf7f10;}.cls-19{fill:#fdb688;}.cls-20{fill:#ea8b57;}.cls-21{fill:#01486b;}.cls-22{fill:#e2e2e2;}.cls-23{fill:#632b12;}.cls-24{fill:#ff9797;}.cls-25{fill:#fdb186;}.cls-26{fill:#db804a;}.cls-27{fill:#817b41;}.cls-28{fill:#5c5624;}</style></defs><path class="cls-1" d="M127.53,259.92q-2.43-2.42-4.72-4.94c-14-27.37-24.7-56.24-34.16-85.44-10-31-18.68-62.37-28.46-93.43-2.32-7.37-4.38-15-7.73-22-2.62-5.48-7.76-13.77-15-12.23C30,43.5,28.74,52,29.21,58.37c.6,8.16,2.67,16.17,4.8,24.05,8.66,32,22.06,62.46,36.41,92.26,6.87,14.27,13.77,28.58,21.35,42.49,1.36,2.51,2.76,5,4.2,7.48Q85.2,210.57,75.16,195.94c-15.31-22.2-29.56-45.11-43.63-68.11-2.81-4.59-5.44-9.94-9.86-13.24A11,11,0,0,0,7.49,115c-4.59,4-5.58,10.2-4.94,15.94A77.6,77.6,0,0,0,7,148.78c8.7,23.83,26.27,43.26,44.75,60.09a438.83,438.83,0,0,0,62.92,47.63c1.37.85,9.31,7.14,10,6.63C126.64,264.92,129.46,261.84,127.53,259.92Z"/><path class="cls-2" d="M123.82,261c-.63-1.34-1.61-3.31-2.88-5.82-.63-1.26-1.37-2.65-2.12-4.19s-1.59-3.2-2.47-5-1.85-3.71-2.86-5.74-2-4.2-3.13-6.47c-4.42-9.06-9.47-19.94-14.93-32.1l-4.14-9.36c-1.4-3.19-2.79-6.47-4.22-9.8-.71-1.66-1.45-3.34-2.16-5l-2.14-5.15c-1.43-3.45-2.93-6.95-4.35-10.52-5.83-14.23-11.06-27.92-15.72-40.4l-3.37-9.13c-1.09-3-2.1-5.86-3.1-8.65-2-5.57-3.8-10.8-5.45-15.56S47.69,79,46.4,75.21c-.65-1.89-1.24-3.66-1.79-5.28s-1-3.12-1.48-4.46c-.89-2.67-1.6-4.75-2.11-6.14a8.43,8.43,0,0,0-.89-2.1,8.42,8.42,0,0,0,.44,2.23c.36,1.45.93,3.56,1.69,6.28.39,1.36.81,2.87,1.28,4.52s1,3.43,1.61,5.35c1.18,3.83,2.47,8.21,4.06,13s3.24,10.06,5.19,15.67c1,2.81,1.94,5.72,3,8.7s2.16,6,3.28,9.18c4.57,12.55,9.74,26.29,15.59,40.54,1.42,3.58,2.92,7.08,4.36,10.54q1.09,2.59,2.16,5.15c.72,1.71,1.46,3.38,2.18,5,1.46,3.33,2.86,6.6,4.28,9.8l4.23,9.34c5.57,12.13,10.79,23,15.41,31.94q1.73,3.38,3.28,6.41l3,5.67q1.42,2.65,2.66,4.92c.81,1.51,1.6,2.87,2.3,4.1,1.4,2.45,2.5,4.35,3.27,5.62.28.46.52.84.71,1.14-.75-.81-2.21-2.26-4.29-4.29-3.21-3.13-7.89-7.64-13.6-13.28-11.39-11.29-26.95-27.1-42.82-45.72-4-4.65-7.77-9.25-11.34-13.77-1.81-2.25-3.52-4.5-5.21-6.69-.86-1.09-1.66-2.21-2.47-3.29s-1.63-2.15-2.4-3.23c-6.24-8.55-11.49-16.51-15.6-23.38-.52-.86-1-1.68-1.51-2.51l-1.38-2.41-1.3-2.28L21,139.37l-1.09-2c-.36-.65-.7-1.27-1-1.89l-1.69-3.32c-.52-1-.94-1.9-1.31-2.68s-.7-1.43-1-2a5.69,5.69,0,0,0-.93-1.56c-.08,0,.09.63.49,1.74.2.56.45,1.25.76,2.06s.66,1.75,1.12,2.78,1,2.18,1.51,3.43c.27.63.59,1.27.91,1.94l1,2.09c.35.71.72,1.46,1.09,2.23l1.24,2.33L23.51,147c.45.84.95,1.69,1.45,2.57a273.42,273.42,0,0,0,15.28,23.81c.77,1.09,1.58,2.16,2.38,3.27s1.61,2.22,2.45,3.33c1.69,2.21,3.4,4.49,5.2,6.76,3.57,4.57,7.39,9.19,11.36,13.87A576.16,576.16,0,0,0,105.09,246c5.86,5.5,10.72,9.83,14.13,12.77s5.36,4.47,5.47,4.35A8.32,8.32,0,0,0,123.82,261Z"/><path class="cls-3" d="M146.65,187.2l-.34,71.67A10.12,10.12,0,0,1,136.13,269l-124-.6A10.12,10.12,0,0,1,2.08,258.18l.35-71.68A10.13,10.13,0,0,1,12.6,176.42l124,.6a10.13,10.13,0,0,1,10.08,10.18Z"/><path class="cls-4" d="M65.33,187.92c-15.82-.59-31.64-.16-47.46-.75-1.53-.06-3,1.32-3,3.58,0,6.39,0,11.78,0,18.17a2.76,2.76,0,0,0,2.7,2.74l47.18.57a2.76,2.76,0,0,0,2.73-2.7c.38-6.3.56-12.58.55-18.88A2.78,2.78,0,0,0,65.33,187.92Z"/><path class="cls-2" d="M115.41,223.84c0-.46-.87-.51-1.08-.11a18.15,18.15,0,0,1-3.26,4.41c-.4.4.55.79,1,.39a19.87,19.87,0,0,0,2.27-2.74q0,3.81,0,7.61c0,.5,1.12.5,1.11,0Q115.33,228.63,115.41,223.84Z"/><path class="cls-2" d="M121.18,223.86c0-.45-.88-.5-1.08-.1a18.17,18.17,0,0,1-3.26,4.4c-.4.41.55.8,1,.4a19.1,19.1,0,0,0,2.26-2.74c0,2.54,0,5.07.06,7.61,0,.49,1.12.5,1.1,0Q121.09,228.64,121.18,223.86Z"/><path class="cls-2" d="M126.8,223.89c0-.45-.88-.5-1.08-.11a18.22,18.22,0,0,1-3.26,4.41c-.4.41.55.8,1,.39a19,19,0,0,0,2.26-2.73q0,3.79.06,7.61c0,.49,1.12.5,1.1,0Q126.71,228.68,126.8,223.89Z"/><path class="cls-2" d="M134,232.9c-.37.36-1.18-.09-1.51-.26s-.63-.33-1-.48a12.69,12.69,0,0,0,1.69-4.49,7.75,7.75,0,0,0,.07-2.63,1.7,1.7,0,0,0-1.42-1.52,2.21,2.21,0,0,0-2.36.77c-.31.52-.49,1.54.56,1.65.56.05.67-.44.33-.67a1,1,0,0,1,.06-.54.75.75,0,0,1,.6-.48.91.91,0,0,1,1.14.86,7.89,7.89,0,0,1-.14,2.82,14.07,14.07,0,0,1-.92,2.67,13,13,0,0,1-.62,1.24,1.88,1.88,0,0,0-1.76.49.93.93,0,0,0,.55,1.48c.72.2,1.37-.49,1.72-.94.48.21.91.47,1.39.67a2.38,2.38,0,0,0,2.53-.24C135.39,232.89,134.44,232.5,134,232.9Zm-4.22-.24a.51.51,0,0,1,.26-.09,1.85,1.85,0,0,1-.37.37C129.65,232.85,129.67,232.75,129.8,232.66Z"/><path class="cls-2" d="M20.05,226.19a3.17,3.17,0,0,0-.84-2.56,2.88,2.88,0,0,0-2.77-.48.54.54,0,0,0-.23.11c-1.64,1.29-1.53,3.11-1.52,4.74a18.39,18.39,0,0,0,.16,2.77,3,3,0,0,0,.92,2,3.06,3.06,0,0,0,2.6.41,1.82,1.82,0,0,0,1.46-1.5A23.56,23.56,0,0,0,20.05,226.19Zm-1.18,4.26c-.05.61.1,1.82-1,2-2.41.47-2.07-3-2.09-3.92,0-1.52-.36-3.51,1.16-4.74,1.4-.47,1.89,1,1.95,1.62.08.81.07,1.63.07,2.44S18.94,229.6,18.87,230.45Z"/><path class="cls-2" d="M25.1,223.4c0-.45-.87-.5-1.08-.11a17.71,17.71,0,0,1-3.26,4.41c-.4.41.55.8.95.39A19.8,19.8,0,0,0,24,225.36q0,3.79.05,7.61c0,.49,1.12.5,1.11,0Q25,228.19,25.1,223.4Z"/><path class="cls-2" d="M31.61,232.4c-.38.36-1.18-.09-1.51-.26l-1-.47a12.46,12.46,0,0,0,1.69-4.49,7.75,7.75,0,0,0,.07-2.63A1.72,1.72,0,0,0,29.48,223a2.23,2.23,0,0,0-2.37.78c-.31.52-.48,1.54.56,1.64.56.06.67-.43.33-.67a1,1,0,0,1,.06-.53.76.76,0,0,1,.6-.49.91.91,0,0,1,1.14.87,7.6,7.6,0,0,1-.13,2.81,14.2,14.2,0,0,1-.93,2.68,12.88,12.88,0,0,1-.62,1.23,1.9,1.9,0,0,0-1.76.49.94.94,0,0,0,.56,1.49c.72.2,1.37-.49,1.72-.95.47.22.9.48,1.39.68a2.36,2.36,0,0,0,2.53-.25C33,232.4,32,232,31.61,232.4Zm-4.23-.24a.5.5,0,0,1,.26-.08,1.81,1.81,0,0,1-.36.37A.23.23,0,0,1,27.38,232.16Z"/><path class="cls-2" d="M38.2,228.1a3.09,3.09,0,0,0-2.06-.61c1.11-1,2.13-2.12,1.57-3.27a2.05,2.05,0,0,0-2-1.05,2.84,2.84,0,0,0-2.2,1.24c-.31.42.59.8.91.38s.83-1,1.6-.86a1,1,0,0,1,.69,1.26c-.29,1-1.51,1.92-2.46,2.66-.4.33.1.76.64.59.83-.27,2.05-.39,2.59.28a2.6,2.6,0,0,1,.37,1.93,2.45,2.45,0,0,1-1.3,1.72,1.5,1.5,0,0,1-2.14-.49c-.27-.44-1.18-.07-.9.37a2.62,2.62,0,0,0,2.94,1,3.42,3.42,0,0,0,2.4-2.37A3,3,0,0,0,38.2,228.1Z"/><path class="cls-2" d="M49.8,223.51c0-.48-1.11-.49-1.11,0,0,1.5,0,3,.05,4.51l-2.27,0c.12-1.52.16-3,.13-4.56,0-.48-1.11-.49-1.1,0a42.92,42.92,0,0,1-.17,4.94c0,.2.25.38.54.38l2.89,0c0,1.42.05,2.85.09,4.28,0,.48,1.11.49,1.1,0C49.87,229.88,49.81,226.7,49.8,223.51Z"/><path class="cls-2" d="M55.77,227.55a3.21,3.21,0,0,0-2.43.3q.07-1.83.06-3.66a11.82,11.82,0,0,0,2.8-.39c.65-.16.37-.86-.29-.69a11.16,11.16,0,0,1-3,.37c-.33,0-.51.15-.53.31a.27.27,0,0,0-.06.17c0,1.64,0,3.27-.11,4.9,0,.37.75.47,1,.19a2.15,2.15,0,0,1,2.3-.79,1.51,1.51,0,0,1,1,1.81,3.82,3.82,0,0,1-.94,2c-.48.53-1.87,1.15-2.45.32-.29-.42-1.24-.06-1,.36.66.95,2.51.92,3.59.3a4,4,0,0,0,1.85-3A2.23,2.23,0,0,0,55.77,227.55Z"/><path class="cls-2" d="M63.93,228.83a5.11,5.11,0,0,0-3.26-.62c0-.65,0-1.3,0-1.94a2.71,2.71,0,0,1,.61-2,1.53,1.53,0,0,1,2.35.52c.2.44,1.27.26,1.06-.18a2.44,2.44,0,0,0-1.82-1.36,2.84,2.84,0,0,0-2.54.66,3.16,3.16,0,0,0-.76,2.17,24,24,0,0,0,.09,2.81,21.93,21.93,0,0,0,.18,2.68c.11.6.16,1.6,1.23,1.85a5,5,0,0,0,2.82-.32,1.87,1.87,0,0,0,1-1.87A2.92,2.92,0,0,0,63.93,228.83Zm-.13,2.79a1,1,0,0,1-.58.94,3.36,3.36,0,0,1-1.4.24c-.4,0-.48-.06-.62-.32a2.39,2.39,0,0,1-.19-.57,6.52,6.52,0,0,1-.17-1.15c0-.61-.09-1.23-.13-1.85,1,0,2.12,0,2.64.65A2.72,2.72,0,0,1,63.8,231.62Z"/><path class="cls-2" d="M71.94,228.19q-.63,0-1.26,0c.36-1.51.76-3,1.15-4.5.06-.27-.24-.48-.68-.43a15.83,15.83,0,0,1-4.07-.08c-.27,0-.63,0-.68.24-.12.38-.23.76-.34,1.15s.93.63,1.06.19l.24-.84a18,18,0,0,0,3.28.08c-.36,1.39-.74,2.78-1.07,4.18l-1.4,0c-.71,0-.71.72,0,.7l1.24,0a36.74,36.74,0,0,0-.78,4.37c0,.45,1.06.45,1.11,0a38.83,38.83,0,0,1,.77-4.37l1.43,0C72.65,228.92,72.65,228.22,71.94,228.19Z"/><path class="cls-2" d="M103.35,226.59a3.18,3.18,0,0,0-.84-2.56,2.9,2.9,0,0,0-2.77-.48.54.54,0,0,0-.23.11C97.87,225,98,226.77,98,228.41a18.33,18.33,0,0,0,.16,2.76,3,3,0,0,0,.92,2,3.08,3.08,0,0,0,2.61.42,1.85,1.85,0,0,0,1.45-1.51A23.56,23.56,0,0,0,103.35,226.59Zm-1.18,4.26c0,.61.1,1.83-1,2-2.41.47-2.07-3-2.09-3.92,0-1.52-.36-3.51,1.16-4.73,1.4-.47,1.89,1,1.95,1.61.08.81.07,1.63.07,2.44S102.24,230,102.17,230.85Z"/><path class="cls-2" d="M96.24,223.74c0-.45-.88-.5-1.08-.11A17.78,17.78,0,0,1,91.9,228c-.4.41.55.8.95.4a19.87,19.87,0,0,0,2.27-2.74c0,2.54,0,5.07,0,7.61,0,.49,1.12.5,1.1,0Q96.15,228.52,96.24,223.74Z"/><path class="cls-2" d="M81.69,223.29a.86.86,0,0,0-.6,0,2.35,2.35,0,0,0-1.67,3.54,19.73,19.73,0,0,0,1.51,1.85c-1.22,1.16-2.66,2.4-2.38,3.86s2.93,1.46,4,.4c1.27-1.24.5-3-.38-4.22a7.27,7.27,0,0,0,1.13-1.32A2.57,2.57,0,0,0,81.69,223.29Zm.4,7.81a1.57,1.57,0,0,1-1.29,1.83c-1.57.24-1.2-1.18-.93-1.7a7.07,7.07,0,0,1,1.58-1.88A3.74,3.74,0,0,1,82.09,231.1Zm.56-4.93A3.44,3.44,0,0,1,81.6,228a6.7,6.7,0,0,1-1.3-1.7,1.77,1.77,0,0,1,1-2.34h0A1.86,1.86,0,0,1,82.65,226.17Z"/><path class="cls-2" d="M90.82,224.11a.44.44,0,0,0-.44-.25s0,0,0-.05a3.52,3.52,0,0,0-4,.61,2.78,2.78,0,0,0-.8,1.84,3.43,3.43,0,0,0,.28,2,1.86,1.86,0,0,0,1.84.81,3.19,3.19,0,0,0,1.93-.88c-.07.54-.16,1.07-.28,1.6a5.56,5.56,0,0,1-1,2.58,1.79,1.79,0,0,1-1.66.51,1.6,1.6,0,0,1-1.31-.67c-.2-.44-1.27-.26-1.07.19.39.85,1.79,1.31,3.08,1.22A2.79,2.79,0,0,0,90,231.54a17.21,17.21,0,0,0,.93-5.62A3.8,3.8,0,0,0,90.82,224.11ZM89.32,227a2.72,2.72,0,0,1-.94,1.08,1.8,1.8,0,0,1-.8.32.74.74,0,0,1-.82-.56,3.24,3.24,0,0,1,.21-2.6c.34-.55,1.63-1.49,2.58-.88a.72.72,0,0,0,.2.09q0,.69,0,1.38A5.27,5.27,0,0,1,89.32,227Z"/><path class="cls-2" d="M28.35,199.66a4.39,4.39,0,0,0,1.09-.45,3.32,3.32,0,0,0,1.41-3.36c-.1-2.82-2.19-4.23-5.91-4.46-.46-.25-1.3-.1-1.31.43q-.06,6.92.4,13.83a.49.49,0,0,0,.24.38.65.65,0,0,0,.61.35c3.52.2,6.34-.82,6.07-3.62A3.56,3.56,0,0,0,28.35,199.66Zm1.43-3.82c0,1.14.08,2.35-1.56,3a5.48,5.48,0,0,1-2,.36l-.93,0c-.07-2.33-.1-4.67-.08-7C28.13,192.44,29.69,193.58,29.78,195.84Zm-1,9a4.9,4.9,0,0,1-3.17.63c-.11-1.76-.2-3.52-.26-5.28,2.38.05,4,.75,4.23,2.59A2.08,2.08,0,0,1,28.79,204.81Z"/><path class="cls-2" d="M49.34,192.61c0-.64-1.38-.64-1.38,0,0,3.63-.18,7.26-.52,10.88A94.55,94.55,0,0,0,41.66,193a.89.89,0,0,0-.95-.18.45.45,0,0,0-.33.48.37.37,0,0,0-.06.21l-.14,12.21c0,.64,1.38.65,1.38,0l.12-10.26a90.17,90.17,0,0,1,5.51,10.69c.24.55,1.3.42,1.36-.13A113.7,113.7,0,0,0,49.34,192.61Z"/><path class="cls-2" d="M35.2,192.42a.89.89,0,0,0-1.36.12c-1.53,4.4-1.83,8.87-2,13.38,0,.69,1.46.69,1.49,0,.08-1.65.17-3.29.33-4.92.88,0,1.76,0,2.64,0,.15,1.64.23,3.28.39,4.84.08.68,1.57.69,1.5,0C37.67,201.45,37.86,196.54,35.2,192.42Zm-1.47,7.52a35.07,35.07,0,0,1,1-5.43A18.13,18.13,0,0,1,36.14,200C35.34,199.93,34.53,199.92,33.73,199.94Z"/><path class="cls-2" d="M59.11,205.79a34.66,34.66,0,0,0-6-6.25q2.2-3.12,4.1-6.33c.34-.58-1-.84-1.31-.27-1,1.69-2.08,3.34-3.2,5,0-1.82,0-3.64,0-5.46,0-.63-1.36-.63-1.36,0l0,13.6c0,.63,1.36.63,1.36,0V200.7a32.76,32.76,0,0,1,5.2,5.58C58.33,206.84,59.51,206.35,59.11,205.79Z"/><path class="cls-2" d="M20.67,250.73a3.62,3.62,0,0,0-2.05-3,5.18,5.18,0,0,0-3.17-.45.51.51,0,0,0-.46.1,4,4,0,0,0-.77.31c-.39.22.18.59.57.37L15,248c.13,2.31.18,4.63.15,6.94a.2.2,0,0,0,0,.23v.08c0,.27.52.32.72.16,1.59.29,3.37.33,4.16-.81a4,4,0,0,0,.57-1.76A9.34,9.34,0,0,0,20.67,250.73Zm-1.23,3.34a1.66,1.66,0,0,1-1.38,1,5.87,5.87,0,0,1-2.13-.17c0-2.37,0-4.74-.17-7.11a4.15,4.15,0,0,1,2.68.57A3.15,3.15,0,0,1,19.88,251,7,7,0,0,1,19.44,254.07Z"/><path class="cls-2" d="M23.94,254.78c-.55,0-1.09,0-1.64,0,0-.78.05-1.55.06-2.32h1c.52,0,.52-.52,0-.52h-1c0-.91,0-1.82,0-2.74l1.22,0c.52,0,.52-.51,0-.52l-1.57,0a.55.55,0,0,0-.25.05c-.13,0-.23.11-.22.23q.09,3,0,6.07c0,.15.19.25.4.27a15.73,15.73,0,0,0,2.06,0C24.45,255.27,24.46,254.75,23.94,254.78Z"/><path class="cls-2" d="M32.08,254.82c-.55,0-1.09,0-1.64,0,0-.78,0-1.55.06-2.33h1c.52,0,.52-.52,0-.52h-1c0-.91,0-1.82,0-2.74l1.22,0c.52,0,.53-.51,0-.52l-1.57,0a.55.55,0,0,0-.25,0c-.13,0-.23.11-.22.23.06,2,.05,4,0,6.07,0,.15.19.25.4.27a17.7,17.7,0,0,0,2.06,0C32.59,255.31,32.6,254.79,32.08,254.82Z"/><path class="cls-2" d="M40.23,254.86a15.14,15.14,0,0,1-1.65,0c0-.77.06-1.54.07-2.32h1c.52,0,.52-.52,0-.52h-1c0-.91,0-1.82,0-2.74l1.22,0c.52,0,.52-.51,0-.52l-1.57,0a.62.62,0,0,0-.25.05c-.12,0-.22.11-.22.23.07,2,.06,4.05,0,6.07,0,.15.19.25.4.26a15.74,15.74,0,0,0,2.06,0C40.74,255.35,40.75,254.83,40.23,254.86Z"/><path class="cls-2" d="M66.81,254.55c-.07-.33-.85-.2-.78.13a2.47,2.47,0,0,1,0,.38H64c0-2-.05-4-.23-6,0-.34-.84-.34-.81,0a57.86,57.86,0,0,1,.23,6.31c0,.14.18.27.4.26.95,0,1.9,0,2.85,0a.36.36,0,0,0,.4-.26A2.58,2.58,0,0,0,66.81,254.55Z"/><path class="cls-2" d="M28.47,248.65c-.1,2-.25,4-1.71,5.81a13.89,13.89,0,0,1-.73-5.52c0-.33-.8-.34-.81,0a13,13,0,0,0,1,6.24.51.51,0,0,0,.73.06c2-1.94,2.18-4.33,2.3-6.59C29.3,248.32,28.49,248.31,28.47,248.65Z"/><path class="cls-2" d="M37,255.12a4.13,4.13,0,0,1-2.43-2.64,1.91,1.91,0,0,0,1.76-2c-.1-1-1-1.92-2.67-1.9-.28,0-.41.15-.39.29v6.51c0,.33.8.34.8,0v-2a5.33,5.33,0,0,0,2.51,2.22C37,255.77,37.36,255.32,37,255.12Zm-2.92-6a1.5,1.5,0,0,1,1.44,1.34A1.36,1.36,0,0,1,34.08,252h0Z"/><path class="cls-2" d="M70.51,255.22q-.93,0-1.86,0c0-.87.06-1.74.07-2.62h1.15c.59,0,.59-.59,0-.59H68.73c0-1,0-2.06,0-3.09l1.38,0c.58,0,.59-.57,0-.59l-1.77,0a.56.56,0,0,0-.28,0c-.14,0-.25.13-.25.26.07,2.28.06,4.57,0,6.85,0,.17.21.28.45.3a20.13,20.13,0,0,0,2.33,0C71.08,255.77,71.09,255.18,70.51,255.22Z"/><path class="cls-2" d="M55,251a3.61,3.61,0,0,0-.91-1.79,3.08,3.08,0,0,0-2.24-1,.41.41,0,0,0-.35.14.37.37,0,0,0-.31.14,6.42,6.42,0,0,0-1.31,3.37,5.71,5.71,0,0,0,.15,1.75,4.41,4.41,0,0,0,.68,1.64,1.24,1.24,0,0,0,.87.47,2.88,2.88,0,0,0,1.25-.16,3.39,3.39,0,0,0,1.61-1.09,3.28,3.28,0,0,0,.63-1.75A6.28,6.28,0,0,0,55,251Zm-.73,1.28a3.69,3.69,0,0,1-.31,1.56,2.42,2.42,0,0,1-1.09,1.08,2.83,2.83,0,0,1-.85.28.55.55,0,0,1-.63-.25,4.8,4.8,0,0,1-.55-1.41,5.35,5.35,0,0,1-.15-1.49,5.91,5.91,0,0,1,1.21-3.28,2.09,2.09,0,0,1,1.48.7,3.18,3.18,0,0,1,.75,1.36A4.77,4.77,0,0,1,54.26,252.28Z"/><path class="cls-2" d="M61.09,248.33c0-.34-.82-.34-.82,0a56.76,56.76,0,0,1-.3,5.83,51,51,0,0,0-3.44-5.62.57.57,0,0,0-.56-.1c-.15.06-.21.16-.19.26a.15.15,0,0,0,0,.11l-.08,6.55c0,.34.82.35.82,0l.07-5.51a47.9,47.9,0,0,1,3.27,5.74c.14.29.77.23.81-.07A55.91,55.91,0,0,0,61.09,248.33Z"/><path class="cls-2" d="M49.39,247.64c-1.66,0-3.32,0-5,0-.56,0-.57.58,0,.57l1.9,0a38.92,38.92,0,0,0-.08,7.24c0,.36.9.37.87,0a38.18,38.18,0,0,1,.09-7.25h2.18C50,248.2,50,247.64,49.39,247.64Z"/><path class="cls-5" d="M125.58,258.05,122,258a8.88,8.88,0,1,1,.08-17.75l3.63,0a8.88,8.88,0,0,1-.09,17.75Z"/><path class="cls-6" d="M120.28,258h.87a2.76,2.76,0,0,0,.47-1.52v-1.63a2.79,2.79,0,0,0-1.48-2.46,2.8,2.8,0,0,0,1.5-2.45v-1.63a2.78,2.78,0,0,0-1.48-2.46,2.78,2.78,0,0,0,1.5-2.46V241.8a2.77,2.77,0,0,0-.45-1.53h-.88a2.13,2.13,0,0,1,.65,1.53v1.62a2.12,2.12,0,0,1-2.13,2.11l-5.73,0v.68l5.73,0a2.13,2.13,0,0,1,2.11,2.13V250a2.12,2.12,0,0,1-2.13,2.11l-5.73,0v.68l5.74,0a2.13,2.13,0,0,1,2.11,2.13v1.62A2.14,2.14,0,0,1,120.28,258Z"/><path class="cls-6" d="M126.62,256.53v-1.62a2.12,2.12,0,0,1,2.13-2.11l5.74,0v-.68l-5.73,0a2.12,2.12,0,0,1-2.11-2.13v-1.62a2.13,2.13,0,0,1,2.13-2.11l5.74,0v-.69l-5.73,0a2.12,2.12,0,0,1-2.11-2.13v-1.63a2.08,2.08,0,0,1,.66-1.52h-.88a2.75,2.75,0,0,0-.46,1.52v1.62a2.79,2.79,0,0,0,1.48,2.47,2.79,2.79,0,0,0-1.51,2.45V250a2.75,2.75,0,0,0,1.47,2.46,2.82,2.82,0,0,0-1.5,2.45v1.63a2.82,2.82,0,0,0,.45,1.52h.88A2.08,2.08,0,0,1,126.62,256.53Z"/><path class="cls-1" d="M261.18,174.88c-10.48,16.56-16.64,35.73-21,54.73a1.33,1.33,0,0,0-.22.95v.06a1.35,1.35,0,0,0,1.81,1.65l2.54-1.23a1.25,1.25,0,0,0,.88-.33l.24-.22c4.39-2.13,8.78-4.28,13.12-6.51,19.11-9.8,37.71-21.37,51.6-38a1.35,1.35,0,0,0-1-2.08c-5-.68-9.84.82-14.24,3-9.54,4.84-17.93,12-25.92,19q-6.21,5.46-12.37,11c7.76-7.95,15.4-16,22.76-24.36a180.38,180.38,0,0,0,20.16-26.71c.88-1.46-1.31-3-2.19-1.5a147.41,147.41,0,0,1-10.6,15.31c-7,8.89-14.68,17.19-22.42,25.41q-7.08,7.52-14.36,14.83c.59-.91,1.19-1.82,1.77-2.74,10.4-16.35,19.29-33.87,23.1-53a1.33,1.33,0,0,0-1.88-1.32C268,165.66,264.24,170.05,261.18,174.88Zm-3.64,46.62c15.57-11.2,30.35-23.54,47-33.16C291.38,202.57,274.73,212.66,257.54,221.5Zm-3.37,1.19,5-4.42c8.06-7.2,16-14.62,24.68-21.08,6.22-4.63,14-10.51,22.18-10.82C287.53,196.72,271.41,210.53,254.17,222.69Zm-7.38-2.77q5.28-12.24,10.78-24.41c2.27-5,4.55-10,6.89-15a80.75,80.75,0,0,1,6.76-12.13C266.67,187,257.3,203.94,246.79,219.92Zm23.5-52a78.69,78.69,0,0,0-6.37,11.38c-2.4,5-4.71,10.15-7,15.25q-6.23,13.72-12.17,27.59a199.25,199.25,0,0,1,8.5-25.77,143.33,143.33,0,0,1,8.07-16.58C263.77,175.52,266.55,171.21,270.29,168Z"/><path class="cls-1" d="M302.27,136.15a5.72,5.72,0,0,1,5.45-1,5.67,5.67,0,0,1,1.95-5.08,5.78,5.78,0,0,1,7.95.68,5.71,5.71,0,0,1,.28,6.94,6.52,6.52,0,0,1,1.53,1.19,5.68,5.68,0,0,1-.68,8,6.67,6.67,0,0,1-1.18.72,5.77,5.77,0,0,1-1.38,7,6.09,6.09,0,0,1-1.4.82,5.77,5.77,0,0,1-1.65,6.35,6.32,6.32,0,0,1-1.29.76,5.77,5.77,0,0,1-1.75,6.06,6.18,6.18,0,0,1-1.32.78,5.66,5.66,0,0,1-9.52,5.88,4.51,4.51,0,0,1-1-1.77A5.76,5.76,0,0,1,291.6,172a5.59,5.59,0,0,1-.94-5.7,5.86,5.86,0,0,1-5.27-1.87,5.68,5.68,0,0,1,.68-8,5.77,5.77,0,0,1,4.22-1.24,5.46,5.46,0,0,1,2-4,5.86,5.86,0,0,1,3.6-1.27,5.74,5.74,0,0,1,1.81-5.83,6,6,0,0,1,3.09-1.25A5.77,5.77,0,0,1,302.27,136.15Z"/><path class="cls-1" d="M233.9,195.46l.61-.52a2.27,2.27,0,0,0,.44-.38q8.9-7.59,17.67-15.33,16.19-14.31,31.89-29.15c2.61-2.46,5.61-4.83,7.87-7.6a6.21,6.21,0,0,0,.45-7.06,7.67,7.67,0,0,0-5.95-4l7.64-5.46c2.31-1.65,4.67-3.25,6.92-5a13.55,13.55,0,0,0,4.77-5.7c1.71-4.42-.64-9.13-5.39-9.91a17.66,17.66,0,0,0-7.05.53c2.12-2.25,4.23-4.51,6.28-6.82,5.09-5.72,10.27-13,8.64-21.09a5.91,5.91,0,0,0-3.51-4.62,7.09,7.09,0,0,0-5.68.85,66.26,66.26,0,0,0-7.71,4.9,42.48,42.48,0,0,0,1.8-10.6c.08-3.39-.31-12.42-5.78-11-4.56,1.16-8.69,5.27-11.49,8.85-4.61,5.88-7.14,12.79-9.72,19.68,0-.23-.05-.46-.08-.69-.42-3.26-.95-6.94-2.39-9.92-1.16-2.42-3.74-3.83-6.22-2.26-2.21,1.4-4,4.24-5.32,6.42A50.43,50.43,0,0,0,246.51,95c-2.27,9.73-2.5,19.81-4.41,29.59-.77-2-1.59-4.08-2.48-6.07-1.45-3.24-4.18-5.58-7.91-4.78-7.22,1.54-7.31,10-6.81,15.82.66,7.6,2.55,15,4.47,22.35,3.36,12.94,6.85,26.9,2.22,40l-.69.58C228.81,194.22,231.82,197.22,233.9,195.46Z"/><path class="cls-2" d="M232.79,193.32l14-32.81A221.29,221.29,0,0,0,235.44,130c-.78-1.71,1.76-3.19,2.55-1.47a228,228,0,0,1,10.61,27.78q3.06-7.17,6.13-14.35c2.85-6.69,5.74-13.35,8.62-20a100.87,100.87,0,0,1-6.05-36.25,1.47,1.47,0,0,1,2.94,0,98.24,98.24,0,0,0,4.84,32.21c3.71-8.62,7.38-17.26,10.9-26a138.42,138.42,0,0,0,8.37-27c.34-1.86,3.17-1,2.84.8C284.11,82.6,276.5,98.35,269.8,114l-1.61,3.78a137.21,137.21,0,0,0,33-37.55,1.47,1.47,0,0,1,2.54,1.49,140.73,140.73,0,0,1-37.82,41.48q-1.5,3.54-3,7.08a125.58,125.58,0,0,0,34.26-17.23c1.54-1.1,3,1.46,1.47,2.55a127.71,127.71,0,0,1-37.24,18.23q-4.39,10.29-8.78,20.56a114.42,114.42,0,0,1,32.14-16.57c1.8-.59,2.53,2.26.74,2.85A110.42,110.42,0,0,0,250.21,160L248,165.13l-12.37,29C234.89,195.83,232,195.06,232.79,193.32Z"/><path class="cls-1" d="M212.42,88.36A7.75,7.75,0,0,1,213.65,86c1.26-1.36,3.21-.37,4.54.36a17.23,17.23,0,0,1,7,7.85,35.25,35.25,0,0,1,2.72,9.8q2.75-6.33,5.53-12.63c1-2.27,2-4.53,3-6.8C231.44,78,223.87,72,223.61,63.12c-.05-1.69.06-3.84,1.64-4.87s3.66.25,5,1.2a19.75,19.75,0,0,1,7,9.4,34.79,34.79,0,0,1,1.94,9.61q3.64-8,7.44-15.85a1.54,1.54,0,0,1-.15-.35,16.41,16.41,0,0,0-3.45-6.16c-1.59-2-3.22-3.93-4.75-6s-3.23-4.37-4.68-6.66c-1.1-1.74-2.16-3.8-2-5.94.44-4.49,5.62-4.84,8.9-3.39a17.48,17.48,0,0,1,8.72,9.34,25.26,25.26,0,0,1,1.8,10.06c.82-1.64,1.65-3.27,2.48-4.91q2.12-4.14,4.29-8.26c-.91-4.38-3.45-8.15-6-11.74-2.29-3.2-5.64-7-4.85-11.24.73-4,4.63-6.31,8.27-4.06a9.92,9.92,0,0,1,3.64,5,37.22,37.22,0,0,1,2.61,15.29c.68-1.24,1.35-2.47,2-3.7a1.06,1.06,0,0,1,.22-.53l.26-.33c.54-1,1.08-1.94,1.63-2.91a.08.08,0,0,0,0,0,63.89,63.89,0,0,1,4.06-13.23c1.6-3.37,4.09-7.72,8-8.73a5.4,5.4,0,0,1,4.72.93c1.58,1.28,1.75,3.35,1.47,5.24-.67,4.51-3.94,7.36-7.44,9.9a50.76,50.76,0,0,0-10.66,10.19l-2.37,4.3a34.65,34.65,0,0,1,5.22-3.32c3.89-2,8.57-3.65,12.9-2.16,3.74,1.28,6.56,5.4,4.9,9.33-1.58,3.74-6,4.14-9.56,4.13-5.89,0-11.78-.07-17.67-.12q-4,7.65-7.82,15.4a23,23,0,0,1,22.09-.19c2,1.09,4.21,2.46,5.42,4.46a5.82,5.82,0,0,1,0,6c-2.51,4.42-8.15,4.23-12.36,2.89-3.09-1-6.09-2.26-9.14-3.36s-6.1-2.17-9.17-3.2q-.94,2-1.86,3.9-3.16,6.66-6.21,13.39a40.68,40.68,0,0,1,8.73-3.7c3.71-1,8.23-1.32,11.79.42a5.07,5.07,0,0,1,2,8.19c-2.39,3-6.43,3-9.91,2.54a113.64,113.64,0,0,1-14.63-3q-4.33,9.65-8.52,19.35c5.6-3.09,12.06-5.59,18.18-2.83a5.41,5.41,0,0,1,3.25,3.34,5.14,5.14,0,0,1-.84,4.19c-2,2.94-5.7,3.16-8.9,2.81-4.66-.53-9.3-1.4-13.89-2.39l-.18.42c-3.49,8.15-6.93,16.31-10.38,24.48a1.12,1.12,0,0,1-2.07-.83q5.39-12.8,10.84-25.57c-3.12-2.79-6.13-5.72-9-8.77-2.46-2.63-5.68-5.51-5-9.48A11.91,11.91,0,0,1,212.42,88.36Z"/><path class="cls-1" d="M112.08,100a7.9,7.9,0,0,0-.45-2.6c-.78-1.63-2.91-1.28-4.36-1a17,17,0,0,0-8.89,5.29A35,35,0,0,0,93,110.1q-.7-6.72-1.46-13.45c-.28-2.41-.56-4.83-.86-7.24,6.66-4.64,15.5-8,18.36-16.3.54-1.56,1.06-3.61-.11-5s-3.5-.83-5.07-.35a19.37,19.37,0,0,0-9.35,6.74,34.12,34.12,0,0,0-4.63,8.43q-1.08-8.52-2.32-17a1.32,1.32,0,0,0,.24-.29,16.11,16.11,0,0,1,5-4.75C94.87,59.44,97,58.1,99,56.64s4.31-3.13,6.33-4.85c1.55-1.31,3.14-2.93,3.57-5,.91-4.33-3.84-6.19-7.34-5.79a17.19,17.19,0,0,0-10.9,6.19A24.75,24.75,0,0,0,86,56.09c-.28-1.77-.58-3.54-.88-5.32q-.76-4.5-1.6-9c2.15-3.84,5.62-6.62,9.08-9.23,3.08-2.33,7.33-4.88,7.84-9.1.48-3.93-2.48-7.26-6.55-6.22A9.72,9.72,0,0,0,89,20.8a35.91,35.91,0,0,0-3.71,5.51,36.52,36.52,0,0,0-3.22,8c-.27-1.35-.55-2.71-.83-4.06a1,1,0,0,0,0-.56c0-.13-.09-.26-.14-.38-.22-1.07-.45-2.14-.68-3.21,0,0,0,0,0,0a62.92,62.92,0,0,0,.07-13.58C80,8.9,78.92,4.09,75.57,2a5.29,5.29,0,0,0-4.69-.51C69,2.23,68.26,4.12,68,6,67.27,10.39,69.5,14,72,17.42a49.73,49.73,0,0,1,7,12.66c.33,1.57.65,3.15,1,4.72a34.55,34.55,0,0,0-3.91-4.64c-3.06-3-6.95-5.92-11.45-5.8-3.87.11-7.72,3.13-7.32,7.3.38,4,4.44,5.65,7.74,6.67,5.52,1.72,11,3.38,16.58,5.07q1.51,8.34,2.81,16.71A22.64,22.64,0,0,0,63.8,53.45c-2.2.44-4.66,1.08-6.38,2.6a5.71,5.71,0,0,0-1.72,5.58c1,4.87,6.39,6.35,10.73,6.33,3.18,0,6.36-.33,9.54-.47s6.35-.24,9.52-.31c.21,1.4.41,2.8.61,4.2q1,7.17,1.88,14.36a40.47,40.47,0,0,0-7.09-6c-3.18-2-7.32-3.64-11.16-3.06a5,5,0,0,0-4.28,7.08C66.8,87.26,70.59,88.43,74,89a111.49,111.49,0,0,0,14.58,1.48q1.23,10.29,2.3,20.61c-4.33-4.54-9.64-8.77-16.19-8a5.3,5.3,0,0,0-4,2.17,5,5,0,0,0-.43,4.18c1,3.32,4.4,4.63,7.51,5.23a133.74,133.74,0,0,0,13.7,1.83c0,.15,0,.3,0,.45.88,8.65,1.71,17.31,2.54,26a1.1,1.1,0,0,0,2.19-.17c-.87-9-1.74-18.08-2.66-27.11q5.61-2.55,11-5.58c3.08-1.74,6.93-3.49,7.5-7.4A11.83,11.83,0,0,0,112.08,100ZM101.9,70.89c1.29-.7,3.19-1.62,4.7-1.53,1.66.08.38,3,0,3.89a19.62,19.62,0,0,1-6.6,7.58c-3,2.15-6.19,3.87-9.24,5.85C92.91,80.49,95.92,74.15,101.9,70.89ZM86,29.88a33.91,33.91,0,0,1,2.86-5.18,18.82,18.82,0,0,1,3.57-4.28c1.36-1.08,3.65-1.91,5-.39A4.19,4.19,0,0,1,98,24.16a10.54,10.54,0,0,1-3.7,4.33c-1.45,1.14-3,2.21-4.41,3.35a37.71,37.71,0,0,0-6.36,6A34.25,34.25,0,0,1,86,29.88Zm-7.57-6.55c-.61-1.16-1.26-2.29-2-3.39-1.9-3-4.6-5.68-5.87-9C69.7,8.48,69.54,2,73.82,3.57c1.57.58,2.48,2.23,3.07,3.69a23.22,23.22,0,0,1,1.41,5.43A51.13,51.13,0,0,1,78.44,23.33ZM70,37.57c-1.9-.59-3.85-1.1-5.73-1.79a8.8,8.8,0,0,1-4-2.41A3.74,3.74,0,0,1,60,29.13a5.26,5.26,0,0,1,4.24-2.55c3.9-.35,7.33,2.33,10,4.87A31.27,31.27,0,0,1,81,40.93Zm1.21,28c-4,.23-9.43,1.13-12.35-2.32-1.19-1.4-1.61-3.66-.35-5.15s3.8-2.1,5.66-2.45a20.2,20.2,0,0,1,20.93,8.85c0,.18.06.36.08.54Q78.18,65.15,71.2,65.53ZM86.94,62c1.22-7.71,4.86-16.21,13.1-18.46a7.77,7.77,0,0,1,5,0c1.76.74,2.11,2.43,1.17,4-1.06,1.77-2.93,3-4.52,4.28-1.8,1.39-3.63,2.74-5.49,4-3.13,2.17-6.67,4-9.15,7C87,62.57,87,62.28,86.94,62Zm-9,25.41c-3-.41-7.1-.57-9.41-2.85A4.11,4.11,0,0,1,67.29,81c.32-1.54,1.85-2.08,3.26-2.18,3.32-.23,6.69,1.18,9.42,3a41.45,41.45,0,0,1,7.41,6.53C84.22,88.1,81.07,87.82,77.93,87.39ZM73.9,111a3.85,3.85,0,0,1-1.64-4c.59-1.79,3.07-1.82,4.6-1.7A14.38,14.38,0,0,1,82.49,107c3.28,1.76,5.9,4.49,8.36,7.25q-5.88-.57-11.7-1.55A12.45,12.45,0,0,1,73.9,111Zm36-8.73c-.46,3.21-4.27,4.7-6.77,6.11-3,1.68-6,3.23-9.12,4.67,2.5-5.28,5.42-11,11-13.55a11,11,0,0,1,4.23-1.11c.57,0,.4-.06.56.35a4.34,4.34,0,0,1,.12,1.09A10,10,0,0,1,109.87,102.27Z"/><path class="cls-7" d="M241.5,12.75C236.63,6,224.55,8,213.7,7.6q-31.26-1.15-62.55-1.17-17.07,0-34.12.32c-7.72.14-15.06-.47-21.71,3.86C87.11,16,90.53,156,93,224.07c.41,11-2.61,30.11,3.25,39.78,5.38,8.89,21.71,7,30,7.14,34.89.52,70-1.48,104.84-2.37a7.3,7.3,0,0,0,3.78-1.13c5.52-2.23,9-7.68,10-15.05C247.73,233.22,251.21,26.3,241.5,12.75Z"/><path class="cls-8" d="M233.74,26.73c-4.32-5.39-15-3.77-24.6-4.09q-27.64-.9-55.32-.92-15.09,0-30.18.25c-6.82.12-14.46-1.77-19.2,3.06-5.43,5.55-4.23,115.26-2,169.18.36,8.72-2.31,23.86,2.87,31.52,4.77,7.05,19.21,5.56,26.5,5.66,30.86.41,61.88-1.17,92.73-1.88a6.9,6.9,0,0,0,3.34-.89c4.88-1.77,7.92-6.09,8.88-11.93C239.24,201.46,242.32,37.47,233.74,26.73Z"/><path class="cls-9" d="M169.65,238c-13.48,0-13.5,20.95,0,20.95S183.15,238,169.65,238Z"/><path class="cls-2" d="M169.65,56.31c-55.86,0-55.94,86.8,0,86.8S225.6,56.31,169.65,56.31Zm29.43,19.27q-11.91,14.49-24.87,28,10.28,10.48,21.22,20.33c.81.72-3.17,4.63-4,3.91q-10.89-9.83-21.14-20.24Q160.08,118,149.18,127.77c-.8.72-4.77-3.19-4-3.91q10.93-9.85,21.23-20.33-13-13.45-24.88-27.95c-.68-.83,3.28-4.75,4-3.91q11.9,14.43,24.79,27.86,12.9-13.43,24.8-27.86C195.81,70.83,199.77,74.75,199.08,75.58Z"/><path class="cls-9" d="M159.82,11.3c-3,0-3,4.66,0,4.66S162.82,11.3,159.82,11.3Z"/><path class="cls-9" d="M170.32,11.3c-3,0-3,4.66,0,4.66S173.32,11.3,170.32,11.3Z"/><path class="cls-9" d="M180.82,11.3c-3,0-3,4.66,0,4.66S183.82,11.3,180.82,11.3Z"/><path class="cls-2" d="M131.17,177.52c.05-1,.08-6.17,0-10.77a21,21,0,0,1,.13-3.85c.15-1,.36-1.42.7-1.57a4.21,4.21,0,0,1,1.34-.11,8.83,8.83,0,0,1,1.73.13,4.54,4.54,0,0,1,3.74,4.42,4.4,4.4,0,0,1-4.49,4.36,5.86,5.86,0,0,1-1.19-.08l-.41-.07-.05.49c0,.28,0,1.55,0,2.86.08,3.59,0,4.78-.44,5a1.6,1.6,0,0,1-.9.1C131.14,178.39,131.14,178.37,131.17,177.52Zm3.72-8.63a3.66,3.66,0,0,0,2.35-1.83,2.85,2.85,0,0,0,.15-1.21,2.26,2.26,0,0,0-.23-1.32,3.16,3.16,0,0,0-1.39-1.5,6.21,6.21,0,0,0-2.43-.59H133c-.34,0-.39,0-.44.18a14.9,14.9,0,0,0-.08,3v2.81l.21.16a3.39,3.39,0,0,0,1.42.39A6.15,6.15,0,0,0,134.89,168.89Z"/><path class="cls-2" d="M147.27,176.77c-.52-1.94-1.32-4.86-1.37-4.91s-.75-.13-1.6-.23-1.63-.23-1.76-.26c-.36-.05-.49.13-.9,1.29-.21.57-.67,1.84-1.09,2.82s-.8,2.09-1,2.42c-.47,1-.8,1.4-1.09,1a1.41,1.41,0,0,1-.1-.83c0-.9.16-1.58,1.24-4.13.44-1,1.06-2.74,1.42-3.77l1.37-3.93c.39-1.13.85-2.5,1-3s.31-1,.33-1.06a.57.57,0,0,1,.49-.23l.16,0c.28.13.38.38.49,1.11a21.76,21.76,0,0,0,.64,2.55c.34,1.06.73,2.4.85,2.92.32,1.24.5,1.6.78,1.76s.34.38.26.8,0,1.13.59,3.15c.8,2.84,1,3.77.78,4.23a1.34,1.34,0,0,1-.34.44c-.15.13-.18.13-.36,0S147.68,178.32,147.27,176.77Zm-1.71-6.64c-.18-.49-1.24-4.31-1.24-4.39a.72.72,0,0,0-.1-.26s-.05,0-.08,0-.13.16-.36.67a18.75,18.75,0,0,0-1.11,3.54c0,.44.39.6,2,.6C145.38,170.24,145.59,170.24,145.56,170.13Z"/><path class="cls-2" d="M153.52,173.46c0-1.75,0-3.35-.06-3.66a4.65,4.65,0,0,0-.41-1.14,37.18,37.18,0,0,0-3.35-5.24c-.93-1.16-1.09-1.58-.68-2,.16-.1.26-.18.34-.18a1.58,1.58,0,0,1,.41.18,10.18,10.18,0,0,1,1.58,1.88c.72,1.12,2.17,3.31,2.37,3.67a6.52,6.52,0,0,0,.39.54c.18.13.18.13.34,0s.87-1.24,2.24-3.31a23.72,23.72,0,0,1,2.07-2.66c.39-.33.64-.36.88-.1.38.49.25.88-.73,2.07a38.32,38.32,0,0,0-3.46,5.26c-.36.7-.44,1.45-.46,5.66,0,1.81-.11,3.41-.13,3.54-.16.43-.93.82-1.11.51A24.77,24.77,0,0,1,153.52,173.46Z"/><path class="cls-2" d="M162.12,172.3c.1-7.82.21-10.41.46-10.87a.66.66,0,0,1,.57-.36.78.78,0,0,1,.44.15,14.71,14.71,0,0,1,.72,1.4,49.29,49.29,0,0,0,2.53,5,40,40,0,0,0,2.51-4.94,13,13,0,0,1,.77-1.47.71.71,0,0,1,1.11.47c.08.41.18,2.19.24,4.05.1,3.08.15,12.42.1,12.65-.13.39-.54.42-.8.06s-.39-.75-.41-6.15c-.06-5-.13-7.54-.21-7.9s-.08-.18-.36.36c-.18.34-.47.93-.65,1.32a27.1,27.1,0,0,1-1.86,3.51.52.52,0,0,1-.49.26c-.15,0-.26,0-.44-.26s-1.31-2.45-1.78-3.51c-.2-.39-.46-1-.64-1.32-.29-.54-.31-.57-.36-.36-.08.39-.16,2.84-.21,7.87-.08,5.48-.08,5.76-.42,6.18-.18.2-.51.31-.67.2S162.09,178.11,162.12,172.3Z"/><path class="cls-2" d="M175.52,178.81c-.05,0-.07,0-.1,0-.31-.13-.39-.36-.31-1.26,0-.52,0-3.26,0-7,0-3.33,0-6.43,0-6.89,0-1.22.1-1.5.77-1.66a37.65,37.65,0,0,1,4.32-.28c1.34,0,1.83,0,2,.31a.53.53,0,0,1-.15.7c-.13,0-1.06.07-2.15.13a17,17,0,0,0-3.41.33c-.18,0-.2.08-.18.39,0,1.24.08,4.29.13,4.88l.05.77,2.22,0a12.74,12.74,0,0,1,2.35.15.48.48,0,0,1,.16.6c-.16.41-.26.44-2.51.46l-2.09,0,0,.52c-.08,1.62-.18,5.75-.11,6.19l.08.24h2.48c2.66,0,2.94.05,3,.38a.81.81,0,0,1-.36.73,18.07,18.07,0,0,1-2.71.15c-1.34,0-2.71.05-3,.08a4.11,4.11,0,0,1-.47,0Z"/><path class="cls-2" d="M185,172.9c-.13-5.35-.13-9.56,0-10.31s.34-1.16.6-1.26c0,0,0,0,.1,0,.26,0,.54.39,1.14,1.7.36.7.95,1.89,1.29,2.64s1.26,2.48,1.94,3.87c1.24,2.58,2.19,4.44,2.73,5.4l.31.49v-1.73c0-1,0-3.18-.13-4.91s-.1-4-.1-5.11c0-2.19,0-2.3.49-2.3a.55.55,0,0,1,.62.44c.05.16.13,1.5.18,3s.08,3.79.13,5.06a74.56,74.56,0,0,1,0,8.47c-.18.54-.64.67-1,.28a48.5,48.5,0,0,1-3.09-5.83c-.52-1.09-1.24-2.56-1.66-3.28l-1.39-2.74c-.57-1.11-.72-1.4-.78-1.29s0,7.15.11,10c.1,2.29.05,3-.24,3.25a.43.43,0,0,1-.67,0C185.23,178.29,185.12,177.28,185,172.9Z"/><path class="cls-2" d="M201.21,178.24c0-.08,0-1.52,0-3.2s0-3.75-.05-4.6-.13-2.86-.16-4.52l-.07-3-1.86-.07c-2-.08-2.46-.21-2.38-.75s1.06-.62,6.46-.62h1.6c2.45,0,2.32,0,2.32.64s-.26.7-2.58.8c-1.14,0-2.12.08-2.14.11a37.89,37.89,0,0,0,0,4.33c.05,2.38.05,5.79.05,7.57,0,3.07,0,3.25-.13,3.43a.79.79,0,0,1-.85.08A.31.31,0,0,1,201.21,178.24Z"/><path class="cls-2" d="M140.34,209.74c-.72-.2-.9-.41-.93-1.36,0-1.4-.08-14.7,0-15a.69.69,0,0,1,.65-.47,1.83,1.83,0,0,1,.69.21,30,30,0,0,1,4.83,4.83,14.42,14.42,0,0,1,2.69,6.17c.23,2.32-1.6,4.57-4.39,5.42a5.7,5.7,0,0,1-1.89.26A6,6,0,0,1,140.34,209.74Zm2.14-1.26a5.12,5.12,0,0,0,3.44-1.71,3.37,3.37,0,0,0,.8-2.16,4.14,4.14,0,0,0,0-1.14,12,12,0,0,0-1.31-3c-1.27-2-3.49-4.85-4.5-5.42l-.23-.13v2.68c0,1.5.08,3.67.1,4.81s.08,3,.08,4.1a9.42,9.42,0,0,0,.08,2.12c0,.08.15.1.26.08S141.89,208.58,142.48,208.48Z"/><path class="cls-2" d="M151.3,209.8c-.05,0-.08,0-.11,0-.31-.13-.38-.36-.31-1.27.06-.51.06-3.25,0-6.94,0-3.33,0-6.43,0-6.9,0-1.21.11-1.49.78-1.65a37.3,37.3,0,0,1,4.31-.28c1.34,0,1.83,0,2,.31a.54.54,0,0,1-.16.69c-.13,0-1.06.08-2.14.13a16.51,16.51,0,0,0-3.41.34c-.18.05-.21.08-.18.39,0,1.24.07,4.28.13,4.88l.05.77,2.22,0a11.12,11.12,0,0,1,2.35.15.49.49,0,0,1,.15.6c-.15.41-.25.44-2.5.46l-2.09,0,0,.51c-.08,1.63-.18,5.76-.1,6.2l.08.23h2.47c2.66,0,2.95.05,3,.39a.81.81,0,0,1-.37.72,17.11,17.11,0,0,1-2.71.16c-1.34,0-2.71.05-3,.08a3.94,3.94,0,0,1-.46,0A.08.08,0,0,1,151.3,209.8Z"/><path class="cls-2" d="M160.79,203.88c-.12-5.34-.12-9.55,0-10.3s.33-1.16.59-1.27c0,0,0,0,.11,0,.25,0,.54.38,1.13,1.7.36.7,1,1.89,1.29,2.64s1.27,2.47,1.94,3.87c1.24,2.58,2.2,4.44,2.74,5.4l.31.49v-1.73c0-1,0-3.18-.13-4.91s-.1-4-.1-5.11c0-2.2,0-2.3.49-2.3a.56.56,0,0,1,.62.44c.05.15.12,1.5.18,3s.07,3.8.13,5.06a80,80,0,0,1,0,8.47c-.19.55-.65.68-1,.29a47.45,47.45,0,0,1-3.1-5.84c-.52-1.08-1.24-2.55-1.65-3.28l-1.4-2.73c-.57-1.11-.72-1.4-.77-1.29s0,7.15.1,10c.1,2.3,0,3-.23,3.26a.45.45,0,0,1-.67,0C161,209.28,160.9,208.27,160.79,203.88Z"/><path class="cls-2" d="M175,192.6c.18.2.2.72.33,5.73.08,2.5,0,5.89.08,7.31s0,2.68,0,3.07c0,.65-.05.78-.23,1s-.46.31-.67.13a5.05,5.05,0,0,1-.49-2c-.1-.88,0-10.51,0-13.54,0-.54-.07-1.34.29-1.6a.92.92,0,0,1,.46-.15A.24.24,0,0,1,175,192.6Z"/><path class="cls-2" d="M179.55,209.8c-.06,0-.08,0-.11,0-.31-.13-.39-.36-.31-1.27.05-.51.05-3.25,0-6.94,0-3.33,0-6.43,0-6.9,0-1.21.1-1.49.78-1.65a37.3,37.3,0,0,1,4.31-.28c1.34,0,1.83,0,2,.31a.52.52,0,0,1-.15.69c-.13,0-1.06.08-2.14.13a16.51,16.51,0,0,0-3.41.34c-.18.05-.21.08-.18.39,0,1.24.07,4.28.12,4.88l.06.77,2.22,0a11.12,11.12,0,0,1,2.35.15.49.49,0,0,1,.15.6c-.15.41-.26.44-2.5.46l-2.09,0,0,.51c-.08,1.63-.18,5.76-.1,6.2l.07.23h2.48c2.66,0,2.95.05,3,.39a.8.8,0,0,1-.36.72,17.24,17.24,0,0,1-2.71.16c-1.34,0-2.71.05-3,.08a3.94,3.94,0,0,1-.46,0A.08.08,0,0,1,179.55,209.8Z"/><path class="cls-2" d="M190,209.74c-.73-.2-.91-.41-.93-1.36,0-1.4-.08-14.7-.06-15a.72.72,0,0,1,.65-.47,1.88,1.88,0,0,1,.7.21,30,30,0,0,1,4.83,4.83,14.27,14.27,0,0,1,2.68,6.17c.23,2.32-1.6,4.57-4.39,5.42a5.59,5.59,0,0,1-1.88.26A6,6,0,0,1,190,209.74Zm2.14-1.26a5.09,5.09,0,0,0,3.43-1.71,3.27,3.27,0,0,0,.8-2.16,3.82,3.82,0,0,0,0-1.14,11.67,11.67,0,0,0-1.32-3c-1.26-2-3.48-4.85-4.49-5.42l-.23-.13v2.68c0,1.5.07,3.67.1,4.81s.08,3,.08,4.1a10.75,10.75,0,0,0,.07,2.12c0,.08.16.1.26.08S191.5,208.58,192.09,208.48Z"/><path class="cls-10" d="M283.29,136.75c8.95-16.38,17.55-17,18.19-17.4.11-.06.47.38-.06,1.09-.77,1-2.54,1.58-2.45,1.72a25.46,25.46,0,0,0,3.35-1.11c.47-.16,3.86-1.75,4.19-1.15s-1.15,1.07-2.36,1.72a16.64,16.64,0,0,0-2,1.14,16.79,16.79,0,0,0,2.16-.89c1.49-.63,3.24-1.5,3.49-.89s-1.35,1.27-2.82,2a25.1,25.1,0,0,0-2.29,1.13,18.39,18.39,0,0,0,2.19-.81c1.3-.51,2.6-1.22,2.81-.62s-1.17,1.08-2.38,1.7-2.12,1-2.1,1.09a17.49,17.49,0,0,0,1.8-.57c1-.32,2-.82,2.13-.33s-.76,1-1.71,1.47c-3.43,1.83-5.79,2.49-8.35,4.79-2.11,1.89-4.35,4.9-7.42,10.61C288.14,141.11,283.41,138.78,283.29,136.75Z"/><path class="cls-11" d="M263.31,118.78c6.81-.21,12.72,21,14.14,21.51s6.53-5.78,7.89-7.56c.53-.69,6.19,3.55,6.66,4.54s-8.9,19.39-16.81,18.17S250.76,119.17,263.31,118.78Z"/><path d="M259.54,273.48s-.15,1.89.17,2.24,3.11,1.38,4.28.66c.16-.1.12-.89.12-.89,6.67,2.42,13.12.49,11.49-.91Z"/><path class="cls-12" d="M260.09,268.36l6,.34a8,8,0,0,0,4.71,4c2.43,1,4.55.23,4.85,1.91,0,.59-4.05,2.25-12.08.15a26.37,26.37,0,0,1-4-1.25C259.12,272.82,259.71,270,260.09,268.36Z"/><path d="M266.56,271.21a.33.33,0,0,0,.27.24.15.15,0,0,0,.19-.11l1.3,0c-.09.34-.18.67-.26,1a.29.29,0,0,0-.19.05.15.15,0,0,0-.09.16.26.26,0,0,0,.06.19.33.33,0,0,0,.33.06c.12,0,.21-.11.19-.23a10.29,10.29,0,0,0,1.33-.32,6.42,6.42,0,0,1,0,1,.31.31,0,0,0-.12.11.25.25,0,0,0,.25.37.19.19,0,0,0,.15-.26.08.08,0,0,0,0-.07,5.69,5.69,0,0,1,.52-.85c.08-.09-.06-.21-.14-.12a7.25,7.25,0,0,0-.47.75,8.87,8.87,0,0,0,0-1,.09.09,0,0,0-.12-.08,11,11,0,0,1-1.48.35l0,0q.13-.57.3-1.11a.09.09,0,0,0-.09-.11l-1.37,0a2.25,2.25,0,0,0,.63-.38,3.83,3.83,0,0,0,1.65,0c.32,0,1.09-.09,1.22-.48s-1-.36-1.88-.15a11.38,11.38,0,0,0,1.15-.6c.26-.17.55-.58.22-.85s-.95.2-1.21.39a5.57,5.57,0,0,0-1.33,1.41,4.3,4.3,0,0,1-.61.52.24.24,0,0,0-.15-.06A.22.22,0,0,0,266.56,271.21Zm1.28-.88a4.66,4.66,0,0,1,1.6-1.39c.56-.28.64.25.36.39s-.66.37-.87.47Zm0,.27a6.59,6.59,0,0,1,1.35-.37,5.36,5.36,0,0,1,1-.09c.18,0,.24.14,0,.26a5.08,5.08,0,0,1-1.31.25A3.06,3.06,0,0,1,267.81,270.6Z"/><path class="cls-13" d="M270.85,272.71a5,5,0,0,0-1.48,3c4.14.26,6.23-.71,6.23-1.14C275.3,272.92,273.24,273.61,270.85,272.71Z"/><path class="cls-13" d="M259.78,269.74c-.31,1.51-.56,3.25-.24,3.74a24.55,24.55,0,0,0,3.65,1.16C263.57,271.86,262.15,270.44,259.78,269.74Z"/><path d="M239.3,275s-.15,1.89.17,2.24,3.11,1.37,4.28.65c.15-.09.12-.49.12-.49a13.29,13.29,0,0,0,7.29,2.07c2,0,3.38-.68,3.13-1.72Z"/><path class="cls-14" d="M239.85,269.85l6.47.25c.93,3,4.45,4.45,5.06,4.87a19.38,19.38,0,0,1,2.91,2.75s-2.65,1.83-7.07.63A15.11,15.11,0,0,1,244,277c-1.28-.68-3.35-.75-4.71-2C238.88,274.31,239.47,271.44,239.85,269.85Z"/><path class="cls-13" d="M242.5,273.9a6.82,6.82,0,0,0-2.91-2.89c-.33,1.55-.62,3.44-.29,4,1.18,1.12,2.91,1.32,4.18,1.81A9.53,9.53,0,0,0,242.5,273.9Z"/><path class="cls-13" d="M251.38,275c-2,0-4,2.5-4.16,3.38,4.24,1.29,7.32.6,7.09-1.07C253.93,276.37,253,275.83,251.38,275Z"/><path d="M250.54,274.26a10.85,10.85,0,0,0-2.16-.61c0-.2.09-.4.13-.6s0-.14,0-.16l-1.31-.27.27-.51a6.19,6.19,0,0,0,1.73.62c.3.06.76.14.93-.2.42-.8-1.25-.74-2.11-.68a1.93,1.93,0,0,0,.65-.79c.14-.31.32-.88,0-1.11-.74-.47-1.19,1.21-1.29,1.85a11.83,11.83,0,0,0-1.56.38.43.43,0,0,0-.22,0,.09.09,0,0,0-.08.13.25.25,0,0,0,.28.4.19.19,0,0,0,.12-.11l1,.21c-.09.17-.19.34-.28.52a.33.33,0,0,0-.36.24.09.09,0,0,0,.09.13.27.27,0,0,0,.44.12l.05-.07a12.28,12.28,0,0,1,1.35.11l-.27,1.2a.27.27,0,0,0-.25.22.3.3,0,0,0,.38.35.29.29,0,0,0,.17-.4,3.54,3.54,0,0,1,2.33-.71h.06A.12.12,0,0,0,250.54,274.26Zm-1.41-2.19c.28,0,.8-.06.76.24s-.5.26-.86.18l-.44-.12a5.34,5.34,0,0,1-.72-.28h1.26Zm-1.23-1.49c.15-.26.3-.5.54-.4s.11.51,0,.77a2,2,0,0,1-.21.37,1.88,1.88,0,0,1-.72.56,2.73,2.73,0,0,1,.17-.79A2.94,2.94,0,0,1,247.9,270.58Zm-2,1.77a11.38,11.38,0,0,1,1.31-.32l-.29.54Zm.88,1.14a.41.41,0,0,0,0-.09l.31-.59,1.24.26-.12.54A10.71,10.71,0,0,0,246.79,273.49Zm1.3,1.47.24-1.1a10,10,0,0,1,1.63.42A3.76,3.76,0,0,0,248.09,275Z"/><path class="cls-4" d="M232.45,179.33c-2.25,20.84,4,91.65,5.28,93.44s8.63-.28,9.41-1.75,7.4-74.36,7.4-74.36h1.7s-.43,74.87,1,76.11,9.18-1.49,10.2-2.77,9.91-61.17,7.66-90.67Z"/><path class="cls-15" d="M257.52,180c0-.28-.44-.3-.43,0a62.65,62.65,0,0,1-.64,10.69.16.16,0,0,0-.07,0c-1.71.28-1.22-2.26-1.15-3.07l.24-2.53c.15-1.69.31-3.38.46-5.07,0-.28-.4-.29-.43,0q-.37,4-.74,8c-.11,1.21-.12,3.32,1.63,3.1-.19,1.27-.42,2.55-.7,3.81-.05.27.36.4.42.13A63.92,63.92,0,0,0,257.52,180Z"/><path class="cls-3" d="M257.88,118.21l-11,.5c-3.88.57-13.09,3.67-13.09,3.67S229,179.55,230.13,184s47.23,2.32,47.3-2.65c.12-8.95-1-45.2-8.81-57.95C266.16,119.43,263.11,117.85,257.88,118.21Z"/><path class="cls-11" d="M261.89,118.78c0-.31-.51-.2-.47.11,0,.13,0,.26,0,.38-.92-.15-1.85-.26-2.78-.32a.25.25,0,0,0,0,.49,27,27,0,0,1,2.85.33c0,.35.08.69.11,1q-1.49,0-3-.15c-.32,0-.34.45,0,.48,1,.1,2,.15,3.05.15l.12,1.42c-.94-.12-1.88-.22-2.82-.29-.31,0-.33.47,0,.49,1,.07,1.92.17,2.87.29,0,.49.07,1,.09,1.48a21.82,21.82,0,0,0-3.24-.32c-.31,0-.32.44,0,.49,1.09.18,2.23-.06,3.28.35,0,.56,0,1.11,0,1.67a13.61,13.61,0,0,0-3.58-.7c-.31,0-.33.45,0,.49a12.32,12.32,0,0,1,3.56.72c0,.63,0,1.26,0,1.88-1.12-.28-2.24-.53-3.37-.72-.31-.06-.32.43,0,.48,1.13.2,2.24.45,3.35.73,0,.47-.08.94-.15,1.41a5.75,5.75,0,0,0-1.3-.54,8.9,8.9,0,0,1-1.76-.52c-.28-.13-.54.28-.26.42,1.05.51,2.21.57,3.25,1.16-.08.49-.16,1-.27,1.47a27,27,0,0,1-2.64-.7.24.24,0,0,0-.15.46,22.49,22.49,0,0,0,2.68.71c-.11.48-.24,1-.38,1.43a10.84,10.84,0,0,1-1.55-.61,8.49,8.49,0,0,1-1.34-1.05c-.23-.21-.59.12-.35.33a9.11,9.11,0,0,0,1.43,1.13,11.25,11.25,0,0,0,1.66.66c-.17.52-.35,1-.56,1.52a8.21,8.21,0,0,1-2.29-2.07c-.18-.25-.54.09-.35.33a8.58,8.58,0,0,0,2.45,2.2c-.18.41-.37.82-.58,1.21-.1.21-.23.4-.34.6a24.05,24.05,0,0,1-1.27-3.06c-.09-.29-.56-.19-.47.11a26.67,26.67,0,0,0,1.42,3.41s0,0,0,0a15.82,15.82,0,0,1-.94,1.37,19.82,19.82,0,0,1-1-3.56c-.05-.31-.53-.2-.47.11a19.66,19.66,0,0,0,1.13,3.91,3.75,3.75,0,0,1-1.7,1.52c0-1.53,0-3.06,0-4.59,0-.31-.48-.33-.48,0,0,1.55,0,3.1,0,4.65a1,1,0,0,1-.28-.06,4,4,0,0,1-.92-.47,31.91,31.91,0,0,0,.61-4.88.24.24,0,0,0-.48,0,32.34,32.34,0,0,1-.57,4.59,9.58,9.58,0,0,1-1.47-1.51,20.35,20.35,0,0,0,2-3.81c.11-.29-.36-.44-.46-.14a19.58,19.58,0,0,1-1.86,3.54c-.37-.5-.7-1-1-1.46.78-1.05,1.55-2.11,2.31-3.16.18-.26-.23-.52-.41-.26l-2.17,3c-.32-.52-.62-1.05-.91-1.59a15,15,0,0,1,2.21-2.22c.24-.2-.09-.56-.34-.36a16.33,16.33,0,0,0-2.12,2.12c-.28-.51-.54-1-.81-1.53a10.59,10.59,0,0,0,2.16-2c.2-.23-.13-.59-.33-.35a9.88,9.88,0,0,1-2.06,1.87l-.67-1.25a16.4,16.4,0,0,0,2.45-1.56.24.24,0,0,0-.33-.36,14.35,14.35,0,0,1-2.35,1.49l-.6-1.11a3.75,3.75,0,0,1,1.1-.87c.44-.3.78-.7,1.19-1,.24-.2-.09-.55-.34-.36a15.86,15.86,0,0,1-1.42,1.18,3.4,3.4,0,0,0-.79.61c-.22-.41-.44-.82-.65-1.24a6.56,6.56,0,0,1,1.05-.84l1.19-.92c.25-.19-.08-.54-.33-.35l-1.34,1a9.75,9.75,0,0,0-.8.64c-.21-.43-.42-.86-.62-1.29a11.55,11.55,0,0,0,3-2.11c.21-.23-.12-.59-.33-.36a11.14,11.14,0,0,1-2.83,2c-.21-.45-.4-.9-.58-1.36.81-.61,1.64-1.2,2.44-1.82.25-.19-.08-.55-.33-.36-.76.58-1.53,1.15-2.3,1.71-.21-.56-.4-1.12-.56-1.69a15.65,15.65,0,0,0,2.09-1.32c.25-.19-.08-.54-.33-.36a13.42,13.42,0,0,1-1.9,1.19c-.14-.52-.26-1-.35-1.58a7.4,7.4,0,0,0,1.86-.67.24.24,0,0,0-.23-.42,8.11,8.11,0,0,1-1.71.61c-.08-.53-.14-1.06-.17-1.6,0-.31-.5-.33-.48,0,.2,3.93,1.77,7.51,3.6,10.94s3.33,7,5.73,9.9a8.81,8.81,0,0,0,3.55,2.83c1.08.34,2.06-1.22,2.63-1.93a20.44,20.44,0,0,0,4.09-9.34C262.8,128,262.42,123.34,261.89,118.78Z"/><path class="cls-16" d="M259.5,119.08a.51.51,0,0,0-.48-.51,80.37,80.37,0,0,0-14.53,1.31c-.28.05-.64.81-.54,1.05,2.65,6.46,5.66,14,11,18.91a.53.53,0,0,0,.61.09c2.52-1.7,3.13-4.34,3.47-7.15A85.88,85.88,0,0,0,259.5,119.08Z"/><path class="cls-17" d="M257.9,137.2l-.09-.31c-.84-3.33-1.37-6.81-2.88-9.92l.06-.14a1.15,1.15,0,0,0,.18-.39,13.65,13.65,0,0,0,.85-2,.5.5,0,0,0-.32-.61,8.76,8.76,0,0,0-2.5-.16c-.55,0-1.6.06-2,.5a.55.55,0,0,0-.07.66.46.46,0,0,0,.07.54l1.87,2c-.19,3.4-.29,6.8-.26,10.21a23.34,23.34,0,0,0,2.11,2.22.53.53,0,0,0,.61.09A6.79,6.79,0,0,0,257.9,137.2Z"/><path class="cls-2" d="M259.58,118.57c-.21-1.54-3.3-2.59-7.84-2.27-2.53.18-4.77.53-6.18,1.62a4.23,4.23,0,0,0-1.61,3c.17,1.35,4.88,7.41,5.81,7.58S254,124.1,254,124.1s3.48,2.83,4.08,2.69S259.79,120.12,259.58,118.57Z"/><path class="cls-18" d="M254.71,94.73a1.05,1.05,0,0,0-1.18-.26,2,2,0,0,0-1.84.44c-1.85,1.28-1.38,3-.76,4.4A18.39,18.39,0,0,0,253.7,104c.36,1.78.67,3.57.91,5.38.07.54,1,.46,1-.09,0-.22,0-.44,0-.67a.5.5,0,0,0,.86-.29,13.12,13.12,0,0,0,0-3.19,1,1,0,0,0,.49-.77C257,101.06,256.79,97.38,254.71,94.73Z"/><path class="cls-19" d="M243.91,111.07c1.89,2.05,1.24,4.29,1.54,7.89.16,2,6.52,4.48,8,4.48s4.49-4.87,4.22-6c-.61-2.51-2.72-10.89-3.16-13.61,2.24,0,2.1-5.13-.62-4.51-1.7-11.53-13.17-7.49-13-.59C240.88,101.58,241.33,108.27,243.91,111.07Z"/><path class="cls-18" d="M255.61,95a3.57,3.57,0,0,0-2.8-2.32.49.49,0,0,0-.32,0l-.1-.07a1,1,0,0,0-.29-.53c-2.57-2.07-6.12-3.08-9.08-1.92a.54.54,0,0,0-.32.62,7.78,7.78,0,0,0-3.59,5.06.51.51,0,0,0,.42.63c-.09.46-.16.92-.25,1.38a.52.52,0,0,0,.48.63,8.53,8.53,0,0,0-.13,1.59.48.48,0,0,0,.53.5,13.06,13.06,0,0,1,.44,1.5c.14.68.35.44.39-.24a8,8,0,0,1,.42-2.16c.48-.52,1.1-1,1.55-1.43l.42-.46a5.73,5.73,0,0,0,2.64-.39,6.65,6.65,0,0,0,1.32-.76,6.72,6.72,0,0,0,2.43-.34,4.75,4.75,0,0,0,.76-.34,29.63,29.63,0,0,1,1.73,6.67.49.49,0,0,0,.94,0,8.14,8.14,0,0,0,.28-1.71.57.57,0,0,0,.68-.3,10.32,10.32,0,0,0,.53-1.68,2.93,2.93,0,0,0,.26.19.57.57,0,0,0,.67-.14.66.66,0,0,0,.2.06v.09c0,.62,1,.67,1,0A10.69,10.69,0,0,0,255.61,95Z"/><path class="cls-18" d="M241.5,101.34s.18,0,.41,0a5.85,5.85,0,0,1,.83,0,3.65,3.65,0,0,1,.79.16,2.45,2.45,0,0,1,.36.15c.06,0,.2-.1.31-.29s.1-.39,0-.43a2.12,2.12,0,0,0-.49-.13,3.19,3.19,0,0,0-1,0,2.94,2.94,0,0,0-.89.25C241.6,101.16,241.47,101.3,241.5,101.34Z"/><path class="cls-18" d="M249.62,99.91c0,.06-.21.09-.49.18a7.37,7.37,0,0,0-1,.36,6.19,6.19,0,0,0-.91.5c-.23.17-.36.29-.38.3s-.28,0-.48-.16-.26-.34-.15-.44a3.94,3.94,0,0,1,.55-.34,5.69,5.69,0,0,1,1.19-.43,4.82,4.82,0,0,1,1.18-.13C249.45,99.77,249.64,99.86,249.62,99.91Z"/><path class="cls-20" d="M245.88,105c.1,0,.17,0,.18.09a.12.12,0,0,1-.09.14l-.13,0c-.24,0-.7.09-.86-.33a1.2,1.2,0,0,1,.11-.73,3.73,3.73,0,0,0,.19-1.91.12.12,0,0,1,.1-.14.13.13,0,0,1,.14.1,3.78,3.78,0,0,1-.21,2,1.08,1.08,0,0,0-.1.58C245.3,105.1,245.62,105.06,245.88,105Z"/><path d="M247.85,101.86a.5.5,0,1,0,.43-.65A.56.56,0,0,0,247.85,101.86Z"/><path d="M242.33,102.44a.5.5,0,1,0,.43-.65A.56.56,0,0,0,242.33,102.44Z"/><path class="cls-20" d="M245.69,101.07c.06,0,0-.31-.08-.66s-.16-.64-.22-.63-.09.31,0,.68S245.64,101.09,245.69,101.07Z"/><path class="cls-20" d="M244.89,101.21c.06,0,.14-.33.08-.74s-.22-.72-.28-.7,0,.34.06.73S244.83,101.21,244.89,101.21Z"/><path class="cls-2" d="M249,106.22c-1.91-.19-3.39-.66-4.63,1-.27.36.35,1.11.61.76,1-1.42,2.06-1.64,4-1.39C249.4,106.67,249.45,106.27,249,106.22Z"/><path class="cls-19" d="M219.21,144.62c-12.41-14-20.93-12.62-21.64-12.85-.12,0-.37.47.31,1,1,.81,2.82,1,2.77,1.13a25.68,25.68,0,0,1-3.52-.33c-.49-.05-4.16-.84-4.34-.18s1.36.79,2.69,1.15a18.66,18.66,0,0,1,2.24.65,17.43,17.43,0,0,1-2.32-.38c-1.59-.28-3.49-.73-3.59-.08s1.6.93,3.19,1.29a24.48,24.48,0,0,1,2.49.59,20.26,20.26,0,0,1-2.32-.3c-1.39-.2-2.81-.6-2.88,0s1.39.79,2.7,1.12,2.31.54,2.29.59a18.37,18.37,0,0,1-1.88-.15c-1-.09-2.13-.35-2.15.16s1,.77,2,1.05c3.75,1,6.2,1.12,9.21,2.78,2.48,1.37,5.34,3.8,9.62,8.67C215.47,150,219.55,146.63,219.21,144.62Z"/><path class="cls-21" d="M233.81,122.38c-5.91,0-6.84,23.57-8.12,24.38s-7.66-4.17-9.38-5.59c-.67-.55-5.24,4.85-5.47,5.92S223.88,164,231.3,161,239.71,122.38,233.81,122.38Z"/><path class="cls-22" d="M219,104.48c.32-1,1.45-1.08,2.35-.92,2,.34,3.91.88,5.86,1.32,3.94.89,7.92,1.63,11.82,2.67.59.16.75.64-.17.51-4-.58-8.1-1-12.15-1.53l-6.08-.76C219.77,105.66,218.62,105.69,219,104.48Z"/><path class="cls-22" d="M220.42,109.82c5.94-.25,11.88-.76,17.83-.76.86,0,.86.48.08.64-5.77,1.17-11.57,2.17-17.35,3.25a.24.24,0,0,1-.28-.14l-.48-2.71A.22.22,0,0,1,220.42,109.82Z"/><path class="cls-22" d="M229.86,115.6c3.29-1.75,6.48-3.68,9.75-5.48.5-.27.83,0,.29.36-2.93,2.17-6.1,4.24-9,6.51a.24.24,0,0,1-.27,0l-.84-1A.21.21,0,0,1,229.86,115.6Z"/><path class="cls-23" d="M98.75,271c-2.07-2.1-6.47-6.08-8.67-4.46s-1.48,10.12-.49,10.24,1.56-5.14,1.56-5.14,7.29,7.67,11.28,5.46C103.75,276.38,100.65,272.93,98.75,271Z"/><path class="cls-10" d="M97,256.31c-3,.8-5.92,1.88-8.93,2.58.77,2.92,1.47,5.53,2,7.66-.1,1.25,5,4.63,6.82,5.22,1.48.48,2.23-.29,1.85-.76C98.09,270.2,97.56,264.43,97,256.31Z"/><path class="cls-23" d="M33.18,266.66c.29-2.94.55-8.86-2.1-9.53s-8.49,4.73-7.95,5.57,4.47-1.51,4.47-1.51-.29,10.65,4,12.31C33,274,32.92,269.34,33.18,266.66Z"/><path class="cls-19" d="M43.38,255.92c-2.53-1.8-5.23-3.35-7.69-5.22-1.75,2.46-3.32,4.67-4.61,6.43-1,.73-.35,6.84.34,8.59.57,1.44,1.65,1.52,1.76.94C33.39,265.63,37.48,261.53,43.38,255.92Z"/><path class="cls-24" d="M94.43,161C103.55,182.33,99.28,263,99,264.17s-9.93,2.69-10.49,1-8.88-72.23-8.88-72.23-3.1,16.81-5.41,24-32.44,44.15-35.06,44.15-6.91-4.71-7.42-7.12,24-36.33,24.94-42.35.3-34.66,8.8-51.13Z"/><path class="cls-2" d="M84.3,163a.22.22,0,0,0-.23.21c0,.86-.07,1.7-.1,2.51-.2,5.33-.37,9.93-1.8,11a1.2,1.2,0,0,1-1,.23l1.26-13.6a.23.23,0,0,0-.45-.05l-1.27,13.82a.21.21,0,0,0,.17.23,1.77,1.77,0,0,0,.5.07,1.64,1.64,0,0,0,1-.34c1.6-1.22,1.77-5.69,2-11.36,0-.82.06-1.65.1-2.51A.22.22,0,0,0,84.3,163Z"/><path class="cls-2" d="M82.53,182.31l-1.58.92-1.22-.9a.23.23,0,0,0-.32,0,.24.24,0,0,0,0,.32l1.07.78-1,.61a.24.24,0,0,0-.08.31.23.23,0,0,0,.2.11l.11,0,1-.59-1.36,9a.24.24,0,0,0,.19.26.25.25,0,0,0,.26-.19l1.35-9,1.06.78a.24.24,0,0,0,.14.05.28.28,0,0,0,.18-.09.24.24,0,0,0,0-.32l-1.16-.85,1.41-.82a.22.22,0,0,0,.08-.3A.22.22,0,0,0,82.53,182.31Z"/><path class="cls-2" d="M60,204.52a170.84,170.84,0,0,1,3.42-28.34,34.32,34.32,0,0,0,7.39-13.78.22.22,0,0,0-.43-.13,34.08,34.08,0,0,1-6.76,13c1-4.31,2.16-8.93,3.72-13.82a.22.22,0,0,0-.15-.28.23.23,0,0,0-.28.14C65.21,166.52,63.94,171.44,63,176a.29.29,0,0,0,0,.09,169.48,169.48,0,0,0-3.42,28.4,48.86,48.86,0,0,1-.83,8.56c-1.92,7-25.78,41-26,41.3a.23.23,0,0,0,0,.32.28.28,0,0,0,.13,0,.22.22,0,0,0,.18-.1c1-1.4,24.16-34.39,26.09-41.44A48.27,48.27,0,0,0,60,204.52Z"/><path d="M89.49,100.16a13.4,13.4,0,0,0-3.63-1.34C83.7,98.18,82.69,97,81,95.76c-2.28-1.61-5.3-1.47-8-1.48a13.2,13.2,0,0,0-3.61.32,5.15,5.15,0,0,0-1.64.72c-.25.18-.61.74-.82.83-1.36.6-3.55-1.58-4.86-2.14a8.13,8.13,0,0,0-3.86-.74A5.59,5.59,0,0,0,54.06,102c-2.3.52-2.26,3.91-2.16,5.67A5.6,5.6,0,0,0,56.39,113a4.75,4.75,0,0,0,.94,5.16A9.94,9.94,0,0,0,60,119.54c1.54.64,3.11,1.25,4.7,1.79,5.63,1.89,12,2.9,17.67,1.09,4.81-1.53,8.63-5.11,9.18-9.72a14,14,0,0,0,.12-1.62C92.93,107.21,93.22,102.62,89.49,100.16Z"/><path class="cls-25" d="M98.19,89.71c.58,1.43,4.43,12.65,4.43,12.65s5.77-1.49,5.86-1.67-3.07-6.81-3.49-11.8c-.07-1-.18-1.56-1-1.88a.77.77,0,0,0-.3-.47,1.1,1.1,0,0,0-.47-.16,2.26,2.26,0,0,0-1.15-.42,15.24,15.24,0,0,0-2-.46c-.53-.07-.8.14-.91.48a1.42,1.42,0,0,0-.29-.26.27.27,0,0,0-.36,0,.29.29,0,0,0-.14.13,17.62,17.62,0,0,0-.92,1.55A8.7,8.7,0,0,0,98.19,89.71Z"/><path class="cls-26" d="M98.12,88.1c1.19.21,1.12-1.12,1-1.89,0-.14.18-.19.2-.06a5.84,5.84,0,0,1,.08.86c.45-.56,1.54-.58,2.18-.61.13,0,.13.2,0,.21-.62,0-1.92.07-2.1.81a2,2,0,0,0,.8,2,2.8,2.8,0,0,1,0-1.4c.1-.33.43-.45.72-.57a8.15,8.15,0,0,1,1.6-.4c.14,0,.19.18.06.2a9,9,0,0,0-1.17.26,1.67,1.67,0,0,0-.74.29,1.31,1.31,0,0,0-.3.95c0,.55.18,1.12.84,1.16a2.9,2.9,0,0,0,.51,0,2,2,0,0,0,.42,0,.31.31,0,0,0,.14-.5.81.81,0,0,0-.63-.28c-.14,0-.13-.23,0-.21.42,0,1.32.38.88,1a.85.85,0,0,1-.64.26l-.14,0a3.29,3.29,0,0,0-.38,2.47.1.1,0,0,1-.2.05,3.55,3.55,0,0,1,.32-2.5,1.71,1.71,0,0,1-.85-.11.71.71,0,0,1-.28-.31,1.59,1.59,0,0,1-.72-.58,1.93,1.93,0,0,0-.74,1c0,.13-.24.08-.2,0A2.14,2.14,0,0,1,99.58,89s0-.09-.08-.14a2.7,2.7,0,0,1-.78.51c-.12.06-.22-.12-.1-.18a2.78,2.78,0,0,0,.79-.52,2.52,2.52,0,0,1-.19-.74,1.08,1.08,0,0,1-1.15.42C97.93,88.28,98,88.08,98.12,88.1Z"/><path class="cls-27" d="M111.82,115c-.34-6.81-2.72-14.46-3.3-14.87s-6.56,1.61-6.35,2.09c.6,1.36,2.61,10.61,2.23,13.71S93.21,129.5,84.09,126.35c-4.06-1.4,7,15.83,9.74,14.07C104.91,133.46,112.24,123.44,111.82,115Z"/><path class="cls-27" d="M94.43,161c.32,1.21-22.49,3-29-.56.06-3.32-4.87-15.2-1.89-26.67,1.15-4.43,5.71-7.86,9.63-10.37,2.81-.33,8.89,2.94,10.9,2.94,3.54.6,15.5,15.65,11.64,22.73C95.28,149.91,93.89,154.27,94.43,161Z"/><path class="cls-25" d="M72.7,81.89c0-.36-.34-1.2-.45-1.75a.24.24,0,0,0-.1-.15.26.26,0,0,0-.33-.15,1.23,1.23,0,0,0-.35.16c0-.36-.21-.63-.75-.71a17.36,17.36,0,0,0-2-.12,2.35,2.35,0,0,0-1.21.09,1.05,1.05,0,0,0-.5,0,.76.76,0,0,0-.42.37c-.84.09-1.11.64-1.45,1.54-1.77,4.68-6.66,10.06-6.61,10.37s5.17,3.22,5.17,3.22,6.8-9.7,7.76-10.92A8.62,8.62,0,0,0,72.7,81.89Z"/><path class="cls-26" d="M71.92,82.34c-1.2-.13-.77-1.38-.46-2.1.06-.12-.12-.23-.18-.11a6.86,6.86,0,0,0-.31.81c-.28-.67-1.32-1-1.92-1.19-.13,0-.18.15-.06.2.59.2,1.84.6,1.81,1.36A2.07,2.07,0,0,1,69.47,83a2.78,2.78,0,0,0,.43-1.34c0-.34-.29-.55-.54-.74a7.84,7.84,0,0,0-1.43-.83c-.12-.06-.23.12-.1.18a9.78,9.78,0,0,1,1,.57,1.89,1.89,0,0,1,.63.48,1.33,1.33,0,0,1,0,1c-.19.52-.48,1-1.12.88a4.16,4.16,0,0,1-.5-.16,1.84,1.84,0,0,1-.38-.17.3.3,0,0,1,0-.51.8.8,0,0,1,.69-.1c.13,0,.19-.18,0-.2-.41-.06-1.37,0-1.11.69.08.24.32.34.54.43l.13.06a3.31,3.31,0,0,1-.32,2.48.11.11,0,0,0,.18.11,3.58,3.58,0,0,0,.38-2.5,1.72,1.72,0,0,0,.85.13.67.67,0,0,0,.36-.21,1.61,1.61,0,0,0,.84-.36A1.83,1.83,0,0,1,70.57,84a.11.11,0,0,0,.21,0,2.15,2.15,0,0,0-.5-1.28.57.57,0,0,0,.11-.11,3,3,0,0,0,.61.71c.1.09.25-.06.15-.15a2.63,2.63,0,0,1-.61-.72,2.57,2.57,0,0,0,.38-.66,1.1,1.1,0,0,0,1,.73C72.05,82.57,72.05,82.36,71.92,82.34Z"/><path class="cls-22" d="M112.38,108.72c-.31-1-1.42-1-2.3-.9-1.94.34-3.86.87-5.77,1.3-3.88.88-7.79,1.6-11.63,2.63-.58.15-.73.63.17.5,4-.57,8-1,12-1.5l6-.76C111.62,109.89,112.76,109.92,112.38,108.72Z"/><path class="cls-22" d="M111,114c-5.85-.25-11.69-.74-17.53-.74-.86,0-.86.47-.09.62,5.67,1.15,11.38,2.13,17.07,3.2a.23.23,0,0,0,.27-.14l.48-2.66A.23.23,0,0,0,111,114Z"/><path class="cls-22" d="M101.71,119.66c-3.24-1.72-6.38-3.62-9.59-5.38-.5-.27-.82,0-.29.35,2.89,2.14,6,4.17,8.81,6.4a.22.22,0,0,0,.26,0l.84-1A.22.22,0,0,0,101.71,119.66Z"/><path class="cls-28" d="M77.24,141.31c3.11-.28,5.9-1.67,9.06-1.74,2.94-.06,5.79.36,8.65,0,.19.43.36.86.52,1.29a47,47,0,0,1-8,.1c-3.61-.06-6.69,1.48-10.2,1.73a55.28,55.28,0,0,1-14.7-1.15c0-.45,0-.9,0-1.35A50.21,50.21,0,0,0,77.24,141.31Z"/><path class="cls-28" d="M65.94,136.8a56.37,56.37,0,0,0,11.24.53c5.3-.32,10.45-1.85,15.71-1.7.28.46.56.92.81,1.39-6.72-.54-13.5,1.87-20.27,1.75a65.35,65.35,0,0,1-9.05-.84l-1.55-.23c.05-.43.12-.86.19-1.29Z"/><path class="cls-28" d="M77,131.42A51.6,51.6,0,0,1,66,129.26c.32-.37.66-.74,1-1.09a52.47,52.47,0,0,0,10.71,2,40.31,40.31,0,0,0,10.76-.37c.34.37.68.77,1,1.19A42.17,42.17,0,0,1,77,131.42Z"/><path class="cls-28" d="M65,157.59a73.07,73.07,0,0,0,11.38.88,157.73,157.73,0,0,0,17.92-.71c0,.44,0,.89,0,1.36a146.55,146.55,0,0,1-20.3.67,68.57,68.57,0,0,1-8.74-.8C65.22,158.57,65.12,158.1,65,157.59Z"/><path class="cls-28" d="M79,127.79A41.89,41.89,0,0,1,69.5,126c.43-.34.87-.67,1.3-1a35.07,35.07,0,0,0,7.56,1.36c2.33.17,4.69.57,7,.55a12.38,12.38,0,0,1,1.58,1.25A45.57,45.57,0,0,1,79,127.79Z"/><path class="cls-28" d="M75.31,155.21a125.53,125.53,0,0,0,19.2-1q-.08.66-.12,1.38a133,133,0,0,1-20.16.92,71.33,71.33,0,0,1-9.6-.62c-.1-.45-.21-.93-.33-1.42A73.34,73.34,0,0,0,75.31,155.21Z"/><path class="cls-28" d="M64.58,146.81c4.1.87,8.31,1.77,12.53,1.45,3.35-.27,6.56-1,9.94-.89,3.2.11,6.37.52,9.36-.41a6.94,6.94,0,0,1-.4,1.52,22.55,22.55,0,0,1-6.45.39c-4.67-.23-9,.68-13.63.81-4.28.12-8.6-.84-12.74-1.78l-.14,0c-.07-.48-.13-1-.18-1.45C63.43,146.56,64,146.69,64.58,146.81Z"/><path class="cls-28" d="M95.19,150.59c-.11.41-.22.87-.33,1.41a155.24,155.24,0,0,1-19.76.49,57.27,57.27,0,0,1-11.51-1.32c-.09-.48-.18-1-.26-1.47a61.07,61.07,0,0,0,14.4,1.46A159,159,0,0,0,95.19,150.59Z"/><path class="cls-28" d="M79.28,134.93a45.42,45.42,0,0,1-15.36-2.22,11.48,11.48,0,0,1,.58-1.23,43.92,43.92,0,0,0,14.72,2.09,61.69,61.69,0,0,0,11.68-.9c.29.39.57.79.85,1.19A60.32,60.32,0,0,1,79.28,134.93Z"/><path class="cls-28" d="M90.31,145c-4.87-.37-9.19,1-14,1.3a34.39,34.39,0,0,1-13.64-2.08q0-.73-.06-1.47A33.9,33.9,0,0,0,75.13,145c3.41-.07,6.62-1.15,10-1.47s7.72,1.08,11.06-.26a13.25,13.25,0,0,1,.23,1.33A15,15,0,0,1,90.31,145Z"/><path class="cls-19" d="M89.71,106.85c.38,2.24,1.15,6.67-1,9.15-2.51,3-3,4.88-4.66,10.35,9.72,16.52-5.66,11.47-10.9-2.94,0,0,5.34-8.76,5.62-12.15-2,.39-2.62-3.5-.18-3.28,3-1.89,6-6.41,6-6.41S89,102.85,89.71,106.85Z"/><path d="M89,106.05s-.16,0-.35.08a5,5,0,0,0-.72.18,2.63,2.63,0,0,0-.65.3,3.33,3.33,0,0,0-.28.19s-.2,0-.32-.18-.17-.32-.09-.38a3.26,3.26,0,0,1,.4-.21,3.34,3.34,0,0,1,.84-.2,2.47,2.47,0,0,1,.83,0C88.83,105.91,89,106,89,106.05Z"/><path d="M81.64,106.45s.21,0,.47.06a5.92,5.92,0,0,1,.94.11,4.16,4.16,0,0,1,.89.25,3.39,3.39,0,0,1,.39.18c.07,0,.24-.07.38-.24s.16-.35,0-.41a4,4,0,0,0-.55-.18,4.61,4.61,0,0,0-1.1-.13,3.66,3.66,0,0,0-1.06.13C81.77,106.29,81.62,106.41,81.64,106.45Z"/><path class="cls-20" d="M85.9,110.1c-.09,0-.13.05-.13.11a.1.1,0,0,0,.11.1H86c.22,0,.62-.06.67-.45a1,1,0,0,0-.23-.62,3.21,3.21,0,0,1-.55-1.61.11.11,0,0,0-.11-.1.13.13,0,0,0-.11.11,3.46,3.46,0,0,0,.59,1.71c.12.21.22.37.2.48S86.14,110.1,85.9,110.1Z"/><path d="M83.57,107.77a.51.51,0,0,1-.35.6.55.55,0,0,1-.16-1.06A.48.48,0,0,1,83.57,107.77Z"/><path d="M88.46,107.16a.5.5,0,0,1-.36.6.55.55,0,0,1-.15-1.07A.51.51,0,0,1,88.46,107.16Z"/><path d="M87.68,112.11c.14.93-.52.62-1.1.71s-1.6.58-1.66-.36A1.53,1.53,0,0,1,86,111,1.35,1.35,0,0,1,87.68,112.11Z"/><path class="cls-2" d="M86.38,112.49c.41-.11,1.16-.14,1.25.15-.18.26-.63.11-1,.18a3.9,3.9,0,0,1-1.29.18C85.39,112.7,85.86,112.62,86.38,112.49Z"/><path class="cls-20" d="M85.27,106.66s0-.27,0-.59,0-.58,0-.59.14.26.14.59S85.33,106.67,85.27,106.66Z"/><path class="cls-20" d="M86,106.62s-.18-.26-.21-.63,0-.66.1-.65.06.29.1.64S86.05,106.61,86,106.62Z"/><path class="cls-27" d="M62.9,137.17c1.78,2.77,11.92-10.57,8.17-12.68-3-1.71-13.37-14.13-12.89-17.14s5-11.41,5.94-12.56c.33-.4-4.85-4-5.53-3.76S54,98.15,51.3,104.4C47.61,112.87,54.55,124.24,62.9,137.17Z"/></svg>