<svg xmlns="http://www.w3.org/2000/svg" xmlns:xlink="http://www.w3.org/1999/xlink" viewBox="0 0 352.96 250.04"><defs><style>.cls-1{fill:none;}.cls-2{isolation:isolate;}.cls-3{clip-path:url(#clip-path);}.cls-4{opacity:0.25;}.cls-5{fill:#b8d4f5;}.cls-6{fill:#cce3f5;}.cls-7{fill:#d1aa3d;}.cls-13,.cls-8{fill:#fcd147;}.cls-9{fill:#fbc02d;}.cls-10{fill:#e8ad29;}.cls-11{fill:#fff176;}.cls-12{fill:#ffee58;mix-blend-mode:multiply;}.cls-13{opacity:0.22;mix-blend-mode:screen;}.cls-14{fill:#e2af9f;}.cls-15{fill:#edb7a2;}.cls-16{fill:#87a7f9;}.cls-17{fill:#304064;}.cls-18{fill:#8aa8ff;}.cls-19{fill:#e9f1ff;}.cls-20{fill:#c4d5f2;}.cls-21{fill:#fff;}.cls-22{fill:#ef487d;}</style><clipPath id="clip-path"><rect class="cls-1" x="-21.89" y="-87.09" width="400" height="400"/></clipPath></defs><g class="cls-2"><g id="Ñëîé_2" data-name="Ñëîé 2"><g class="cls-3"><g class="cls-4"><path class="cls-5" d="M148.49,4.14c-51.48,0-87.36,49-128.72,106.05-25.7,35.46-14,67.8,4.42,91.44A104.94,104.94,0,0,0,104.08,242c27.79.75,68.53,1.6,109.21,1.6,24,0,48.09-.23,69.39-1,104.91-3.85,71.32-206,19.42-206a21,21,0,0,0-3.58.31c-21,3.67-30.39,6.4-38.25,6.4-12.65,0-21.4-7.08-68.63-28.71C176,7.38,161.72,4.14,148.49,4.14Z"/><path class="cls-6" d="M259.28,2.46C252.11,2.46,242,4.1,242,12S255,28,262.17,28s8.67-4.83,8.67-12.75S266.46,2.46,259.28,2.46Z"/></g><path class="cls-7" d="M129.84,83H38.1a1.75,1.75,0,0,0-1.27.53h0l-2.22,2.2,1.85,0v52.94a1.54,1.54,0,0,0,1.64,1.42h90.82l-.78,1.59.56.29,2.4-2.39a1.31,1.31,0,0,0,.39-.91V84.43A1.55,1.55,0,0,0,129.84,83Z"/><path class="cls-8" d="M35.78,85.32h91.73a1.54,1.54,0,0,1,1.65,1.42v54.2a1.55,1.55,0,0,1-1.65,1.43H35.78a1.55,1.55,0,0,1-1.65-1.43V86.74A1.54,1.54,0,0,1,35.78,85.32Z"/><path class="cls-9" d="M109.06,117.67h11.73a1.09,1.09,0,0,1,1.16,1v8.7a1.09,1.09,0,0,1-1.16,1H109.06a1.08,1.08,0,0,1-1.15-1v-8.7A1.08,1.08,0,0,1,109.06,117.67Z"/><rect class="cls-10" x="107.91" y="124.76" width="14.05" height="1"/><rect class="cls-10" x="116.54" y="117.67" width="1" height="10.67"/><rect class="cls-10" x="112.45" y="117.67" width="1" height="10.67"/><rect class="cls-10" x="107.91" y="122.42" width="14.05" height="1"/><rect class="cls-10" x="107.91" y="120.08" width="14.05" height="1"/><rect class="cls-11" x="48.92" y="91.64" width="9.41" height="9.41" transform="translate(-52.42 66.14) rotate(-45)"/><rect class="cls-12" x="42.01" y="91.64" width="9.41" height="9.41" transform="translate(-54.44 61.26) rotate(-45)"/><rect class="cls-11" x="103.09" y="106.79" width="17.74" height="3.74"/><rect class="cls-11" x="83.07" y="106.79" width="17.74" height="3.74"/><rect class="cls-11" x="63.48" y="106.79" width="17.74" height="3.74"/><rect class="cls-11" x="44.02" y="106.79" width="17.74" height="3.74"/><rect class="cls-11" x="103.09" y="97.36" width="17.74" height="3.74"/><rect class="cls-11" x="83.07" y="97.36" width="17.74" height="3.74"/><rect class="cls-11" x="99.43" y="133.81" width="22.39" height="3.74"/><path class="cls-13" d="M35.66,142.37H90.51L68.27,85.32H35.66a1.53,1.53,0,0,0-1.53,1.53v54A1.54,1.54,0,0,0,35.66,142.37Z"/><path class="cls-14" d="M162.76,79.75,249.32,130a22.51,22.51,0,0,1,10.86,15.58l1.53,8.73-61.32,16.5-37.73-52.1Z"/><path class="cls-15" d="M158.6,75.94l23.25,16.88a11.63,11.63,0,1,1-13.66,18.82c-.31-.22-.61-.47-.89-.71L145.82,91.85A10.22,10.22,0,0,1,158.6,75.94Z"/><path class="cls-15" d="M148.54,121.92l18.77-10.72a11,11,0,0,1,10.92,19.11,11.45,11.45,0,0,1-1.22.6l-19.94,8.33a9.67,9.67,0,0,1-8.53-17.32Z"/><path class="cls-15" d="M150.46,137.69,169.22,127a11,11,0,1,1,10.92,19.12c-.38.21-.83.43-1.22.6L159,155a9.67,9.67,0,0,1-8.52-17.32Z"/><path class="cls-15" d="M155.1,154.61l18.76-10.71A11,11,0,1,1,184.78,163a10.59,10.59,0,0,1-1.22.6l-19.94,8.33a9.67,9.67,0,0,1-8.52-17.33Z"/><path class="cls-14" d="M215.37,214.88s-18.41-8.73-23.44-12.32-15.17-10.28-16.53-15.09l-10-31.34,70.25-.68,21.06,46.49-5,15.77-36,5.64Z"/><polygon class="cls-15" points="284.41 250.04 266.75 188.62 215.37 214.88 216.61 250.04 284.41 250.04"/><path class="cls-16" d="M237.3,32.64H169.44c-3.69,0-6.68,3.41-6.68,7.61V185.47c0,4.21,3,7.62,6.68,7.62H237.3c3.69,0,6.68-3.41,6.68-7.62V40.25C244,36.05,241,32.64,237.3,32.64Z"/><path class="cls-5" d="M240,32.19H172.1c-3.69,0-6.68,3.41-6.68,7.61V185c0,4.21,3,7.62,6.68,7.62H240c3.69,0,6.68-3.41,6.68-7.62V39.8C246.65,35.6,243.66,32.19,240,32.19Z"/><polygon class="cls-17" points="165.42 50.06 165.42 177.8 246.65 176.7 246.65 50.06 165.42 50.06"/><path class="cls-18" d="M218,40.72H194A1.13,1.13,0,0,0,194,43h24a1.13,1.13,0,0,0,0-2.23Z"/><path class="cls-18" d="M187.77,40.72a1.12,1.12,0,1,0,1.12,1.11A1.12,1.12,0,0,0,187.77,40.72Z"/><path class="cls-19" d="M240,32.19H172.1c-3.69,0-6.68,3.41-6.68,7.61v1.41c0-4.21,3-7.62,6.68-7.62H240c3.69,0,6.68,3.41,6.68,7.62V39.8C246.65,35.6,243.66,32.19,240,32.19Z"/><path class="cls-20" d="M240,191.23H172.1c-3.69,0-6.68-3.41-6.68-7.62V185c0,4.21,3,7.62,6.68,7.62H240c3.69,0,6.68-3.41,6.68-7.62v-1.41C246.65,187.82,243.66,191.23,240,191.23Z"/><polygon class="cls-21" points="162.76 100.37 165.42 101.42 165.42 97.57 162.76 96.32 162.76 100.37"/><polygon class="cls-21" points="162.76 73.12 165.42 74.25 165.42 72.88 162.76 71.77 162.76 73.12"/><path class="cls-15" d="M261.71,154.33a29.59,29.59,0,1,0,7.88,52.1Z"/><polygon class="cls-14" points="233.88 205.52 216.61 250.04 215.37 214.88 233.88 205.52"/><path class="cls-15" d="M220.39,156.34l3.19,19.09s13.46-4.39,13.06-4.6-4.48-12.76-4.63-13.23S220.39,156.34,220.39,156.34Z"/><rect class="cls-22" x="167.53" y="131.67" width="77.01" height="15.17" rx="7.58"/><polygon class="cls-21" points="174.77 137.06 177.22 137.06 177.22 143.29 179 143.29 179 137.06 181.45 137.06 181.45 135.62 174.77 135.62 174.77 137.06"/><path class="cls-21" d="M188.64,139.87a2.54,2.54,0,0,0,.42-1.47,2.67,2.67,0,0,0-.41-1.48,2.63,2.63,0,0,0-1.16-1,4.2,4.2,0,0,0-1.77-.34H182.4v7.67h1.78v-2.14h1.63l1.48,2.14h1.91l-1.72-2.47A2.55,2.55,0,0,0,188.64,139.87Zm-1.8-.48a1.86,1.86,0,0,1-1.21.35h-1.45v-2.68h1.45a1.86,1.86,0,0,1,1.21.35,1.21,1.21,0,0,1,.42,1A1.23,1.23,0,0,1,186.84,139.39Z"/><polygon class="cls-21" points="193.22 139.03 191.17 135.62 189.29 135.62 192.25 140.55 192.25 143.29 194.03 143.29 194.03 140.57 197.01 135.62 195.27 135.62 193.22 139.03"/><path class="cls-21" d="M203.27,135.62l-3.42,7.67h1.82l.68-1.65h3.56l.68,1.65h1.86L205,135.62Zm-.35,4.68,1.21-2.94,1.22,2.94Z"/><path class="cls-21" d="M211.66,137.31a2.78,2.78,0,0,1,3.29.55l1.14-1.05a3.52,3.52,0,0,0-1.38-1,4.7,4.7,0,0,0-1.83-.34,4.54,4.54,0,0,0-2.17.51,3.8,3.8,0,0,0-1.51,1.41,3.89,3.89,0,0,0-.54,2,4,4,0,0,0,.54,2.05,3.78,3.78,0,0,0,1.5,1.41,4.45,4.45,0,0,0,2.14.51,5.57,5.57,0,0,0,1.66-.25,4.6,4.6,0,0,0,1.45-.73v-3.11h-1.63v2.25a2.87,2.87,0,0,1-1.38.33,2.66,2.66,0,0,1-1.28-.31,2.28,2.28,0,0,1-.89-.88,2.52,2.52,0,0,1-.31-1.27,2.55,2.55,0,0,1,.31-1.28A2.23,2.23,0,0,1,211.66,137.31Z"/><path class="cls-21" d="M220,135.62l-3.42,7.67h1.82l.68-1.65h3.56l.68,1.65h1.86l-3.43-7.67Zm-.35,4.68,1.22-2.94,1.21,2.94Z"/><rect class="cls-21" x="225.98" y="135.62" width="1.78" height="7.67"/><polygon class="cls-21" points="234.86 140.28 231.05 135.62 229.58 135.62 229.58 143.29 231.33 143.29 231.33 138.63 235.16 143.29 236.61 143.29 236.61 135.62 234.86 135.62 234.86 140.28"/><circle class="cls-22" cx="206.04" cy="88.4" r="33.99"/><path class="cls-21" d="M224.29,70.16a5,5,0,0,0-7.15,0L206,81.26l-11.1-11.1a5.06,5.06,0,0,0-7.15,7.15l11.1,11.1L187.8,99.5a5.06,5.06,0,0,0,7.15,7.15L206,95.56l11.09,11.09a5.06,5.06,0,0,0,7.15-7.15L213.19,88.41l11.1-11.1A5,5,0,0,0,224.29,70.16Z"/><path class="cls-15" d="M198.16,142.53l26.74,3.25a12.88,12.88,0,0,1-3.11,25.58,13.65,13.65,0,0,1-1.47-.27l-26.18-6.32a11.32,11.32,0,0,1,4-22.24Z"/><path class="cls-15" d="M257.38,176.34a12.78,12.78,0,0,1-9.55,1.38l-25.75-6.34a12.86,12.86,0,1,1,6.15-25L254,152.74a12.86,12.86,0,0,1,3.4,23.6Z"/></g></g></g></svg>